<?xml version="1.0" encoding="UTF-8"?>
<svg height="16px" viewBox="0 0 16 16" width="16px" xmlns="http://www.w3.org/2000/svg">
    <path d="m 8 0 c -4.433594 0 -8 3.566406 -8 8 c 0 4.058594 2.996094 7.390625 6.90625 7.925781 c 0.472656 0 0.949219 0.054688 1.425781 -0.035156 c 3.742188 -0.695313 6.644531 -4.28125 5.910157 -8.089844 c -0.5625 -2.929687 -3.382813 -5.195312 -6.355469 -4.601562 c -2.242188 0.449219 -3.976563 2.617187 -3.503907 4.882812 c 0.347657 1.664063 1.96875 2.953125 3.636719 2.589844 c 1.191407 -0.261719 2.109375 -1.425781 1.84375 -2.601563 c -0.074219 -0.320312 -0.246093 -0.605468 -0.476562 -0.828124 c 0.109375 0.148437 0.191406 0.3125 0.246093 0.488281 c 0.304688 1.035156 -0.410156 1.980469 -1.320312 2.226562 c -1.238281 0.339844 -2.371094 -0.523437 -2.65625 -1.636719 c -0.382812 -1.496093 0.675781 -2.871093 2.042969 -3.203124 c 1.824219 -0.4375 3.496093 0.867187 3.882812 2.558593 c 0.511719 2.222657 -1.097656 4.269531 -3.183593 4.722657 c -2.714844 0.59375 -5.210938 -1.390626 -5.75 -3.953126 c -0.6875 -3.308593 1.746093 -6.351562 4.890624 -6.980468 c 0.5 -0.101563 0.996094 -0.140625 1.484376 -0.128906 c 3.40625 0.082031 6.308593 2.773437 6.957031 6.132812 c 0.007812 0.050781 0 0.101562 0.007812 0.15625 c -0.195312 -4.257812 -3.683593 -7.625 -7.988281 -7.625 z m 0 0" fill="#241f31"/>
</svg>
