<?xml version="1.0" encoding="UTF-8"?>
<svg height="16px" viewBox="0 0 16 16" width="16px" xmlns="http://www.w3.org/2000/svg">
    <g fill-opacity="0.035294" fill-rule="evenodd" stroke="#000000">
        <path d="m 8 8 h 0.003906 c 0.007813 0.011719 -0.003906 0.023438 -0.011718 0.023438 c -0.035157 0.011718 -0.0625 -0.027344 -0.070313 -0.054688 c -0.015625 -0.09375 0.082031 -0.15625 0.160156 -0.164062 c 0.195313 -0.015626 0.324219 0.191406 0.324219 0.363281 c 0.007812 0.378906 -0.382812 0.609375 -0.722656 0.597656 c -0.660156 -0.027344 -1.050782 -0.710937 -1 -1.3125 c 0.085937 -1.078125 1.207031 -1.695313 2.203125 -1.582031 c 1.667969 0.1875 2.609375 1.933594 2.386719 3.488281 c -0.347657 2.480469 -2.957032 3.851563 -5.28125 3.472656 c -2.734376 -0.449219 -4.667969 -2.90625 -4.960938 -5.582031"/>
        <path d="m 176.000548 24.001603 c 0.00143 -0.005336 0.003383 -0.001953 0.005336 0.00143 c 0.005859 0.010148 -0.007672 0.017961 -0.014438 0.021867 c -0.034352 0.010812 -0.061173 -0.027829 -0.070032 -0.058799 c -0.015905 -0.090049 0.078293 -0.153455 0.160146 -0.160119 c 0.19663 -0.018802 0.324489 0.187032 0.326237 0.361934 c 0.007019 0.379345 -0.383446 0.60929 -0.725578 0.594825 c -0.659538 -0.025166 -1.048733 -0.707084 -0.999084 -1.308589 c 0.085805 -1.077944 1.207119 -1.698272 2.202827 -1.58303 c 1.668534 0.186861 2.609978 1.934677 2.390156 3.491435 c -0.348492 2.474519 -2.959231 3.851024 -5.281761 3.468908 c -2.734172 -0.446662 -4.668652 -2.906655 -4.964007 -5.582288" transform="matrix(-0.5 0.866025 -0.866025 -0.5 116.579241 -132.619363)"/>
        <path d="m 176.000845 24.000411 c 0.001953 -0.003383 0.003383 0.001953 0.003383 0.001953 c 0.008196 0.009242 -0.006383 0.018867 -0.013672 0.02368 c -0.033969 0.011962 -0.064799 -0.02839 -0.069994 -0.058453 c -0.015588 -0.09019 0.081124 -0.156138 0.160118 -0.160147 c 0.19534 -0.018026 0.32476 0.1875 0.328348 0.360973 c 0.003653 0.376485 -0.386438 0.606831 -0.727001 0.595139 c -0.65835 -0.023765 -1.047758 -0.708666 -0.997593 -1.31118 c 0.085715 -1.07815 1.204302 -1.695287 2.200458 -1.584742 c 1.670235 0.193006 2.610168 1.939994 2.389089 3.494788 c -0.346304 2.474817 -2.957664 3.849388 -5.281642 3.468386 c -2.733105 -0.445811 -4.66796 -2.907044 -4.960821 -5.579482" transform="matrix(-0.5 -0.866025 0.866025 -0.5 75.457645 172.210471)"/>
    </g>
</svg>
