<?xml version="1.0" encoding="UTF-8"?>
<svg height="16px" viewBox="0 0 16 16" width="16px" xmlns="http://www.w3.org/2000/svg">
    <path d="m 8.941406 5.375 c -0.621094 -0.074219 -1.253906 0.078125 -1.773437 0.421875 c -0.519531 0.347656 -0.929688 0.914063 -0.984375 1.613281 c -0.035156 0.425782 0.078125 0.847656 0.324218 1.199219 c 0.246094 0.355469 0.65625 0.636719 1.15625 0.65625 c 0.289063 0.007813 0.570313 -0.074219 0.808594 -0.25 c 0.238282 -0.175781 0.441406 -0.492187 0.433594 -0.855469 c 0 -0.203125 -0.066406 -0.386718 -0.199219 -0.554687 c -0.132812 -0.171875 -0.390625 -0.320313 -0.667969 -0.296875 c -0.15625 0.011718 -0.28125 0.0625 -0.402343 0.171875 c -0.125 0.109375 -0.25 0.34375 -0.207031 0.578125 c 0.007812 0.027344 0.027343 0.039062 0.035156 0.0625 c -0.042969 -0.035156 -0.097656 -0.027344 -0.136719 -0.082032 c -0.101563 -0.148437 -0.160156 -0.367187 -0.148437 -0.546874 c 0.03125 -0.375 0.226562 -0.65625 0.539062 -0.859376 c 0.3125 -0.207031 0.734375 -0.308593 1.113281 -0.265624 c 0.671875 0.078124 1.1875 0.453124 1.535157 1.003906 c 0.347656 0.550781 0.503906 1.265625 0.414062 1.921875 c -0.304688 2.160156 -2.632812 3.382812 -4.707031 3.046875 c -2.484375 -0.40625 -4.277344 -2.671875 -4.546875 -5.144532 l -0.992188 0.109376 c 0.316406 2.878906 2.390625 5.53125 5.378906 6.019531 c 2.570313 0.421875 5.460938 -1.097657 5.855469 -3.890625 c 0.125 -0.902344 -0.074219 -1.839844 -0.558593 -2.597656 c -0.484376 -0.761719 -1.273438 -1.351563 -2.269532 -1.460938 z m -1.324218 2.300781 s 0.011718 0.007813 0.011718 0.007813 c 0.019532 0.015625 0.371094 0.316406 0.371094 0.316406 l 0.300781 0.222656 c -0.003906 0.003906 -0.003906 0.007813 -0.003906 0.007813 c -0.0625 0.054687 -0.097656 0.066406 -0.175781 0.074219 c -0.082032 0.007812 -0.171875 -0.050782 -0.195313 -0.074219 c -0.019531 -0.027344 -0.015625 -0.023438 -0.019531 -0.050781 c 0.003906 0.011718 0.011719 0.003906 -0.027344 0.03125 c -0.042968 0.027343 -0.125 0.054687 -0.175781 0.054687 c -0.058594 -0.003906 -0.089844 -0.0625 -0.136719 -0.082031 c -0.035156 -0.09375 -0.066406 -0.195313 -0.046875 -0.277344 c 0.019531 -0.105469 0.066407 -0.171875 0.101563 -0.210938 c -0.011719 0.003907 -0.035156 0.027344 -0.035156 0.027344 z m 0.070312 0.714844 c 0.097656 0.0625 0.230469 0.105469 0.378906 0.085937 c -0.0625 0.007813 -0.132812 0.015626 -0.132812 0.019532 c 0.003906 0 -0.128906 -0.039063 -0.128906 -0.039063 c 0.003906 0.003907 -0.0625 -0.03125 -0.0625 -0.03125 s -0.035157 -0.023437 -0.050782 -0.035156 z m 0 0"/>
    <path d="m 9.597656 9.929688 c 0.371094 -0.5 0.558594 -1.125 0.519532 -1.75 c -0.039063 -0.621094 -0.324219 -1.257813 -0.90625 -1.65625 c -0.347657 -0.242188 -0.773438 -0.355469 -1.199219 -0.320313 s -0.878907 0.253906 -1.144531 0.675781 c -0.152344 0.246094 -0.222657 0.527344 -0.1875 0.824219 c 0.03125 0.296875 0.203124 0.628906 0.519531 0.804687 c 0.179687 0.097657 0.371093 0.136719 0.585937 0.105469 c 0.210938 -0.035156 0.46875 -0.179687 0.589844 -0.433593 c 0.066406 -0.140626 0.085938 -0.273438 0.050781 -0.433594 c -0.03125 -0.164063 -0.171875 -0.386719 -0.398437 -0.464844 c -0.023438 -0.011719 -0.046875 0 -0.070313 -0.003906 c 0.050781 -0.019532 0.074219 -0.070313 0.140625 -0.078125 c 0.175782 -0.015625 0.398438 0.042969 0.546875 0.148437 c 0.308594 0.210938 0.453125 0.523438 0.476563 0.894532 c 0.023437 0.371093 -0.101563 0.789062 -0.328125 1.09375 c -0.402344 0.546874 -0.988281 0.800781 -1.636719 0.828124 c -0.652344 0.027344 -1.347656 -0.195312 -1.871094 -0.601562 c -1.71875 -1.34375 -1.617187 -3.96875 -0.285156 -5.601562 c 1.59375 -1.945313 4.453125 -2.363282 6.726562 -1.363282 l 0.402344 -0.914062 c -2.652344 -1.167969 -5.984375 -0.695313 -7.902344 1.648437 c -1.648437 2.015625 -1.777343 5.28125 0.445313 7.019531 c 0.714844 0.558594 1.628906 0.851563 2.527344 0.8125 c 0.898437 -0.039062 1.804687 -0.429687 2.398437 -1.234374 z m -1.332031 -2.296876 s -0.011719 0.003907 -0.011719 0.003907 c -0.023437 0.007812 -0.460937 0.164062 -0.460937 0.164062 l -0.34375 0.148438 c 0 -0.003907 -0.003907 -0.003907 -0.003907 -0.007813 c -0.015624 -0.078125 -0.007812 -0.117187 0.023438 -0.1875 c 0.035156 -0.074218 0.128906 -0.125 0.164062 -0.128906 c 0.03125 -0.003906 0.03125 -0.003906 0.054688 0.007812 c -0.011719 -0.007812 -0.007812 0.003907 -0.015625 -0.042968 c -0.003906 -0.050782 0.015625 -0.136719 0.042969 -0.175782 c 0.03125 -0.050781 0.097656 -0.046874 0.140625 -0.078124 c 0.09375 0.015624 0.199219 0.039062 0.261719 0.09375 c 0.082031 0.074218 0.113281 0.144531 0.132812 0.195312 c -0.003906 -0.011719 -0.007812 -0.046875 -0.007812 -0.046875 z m -0.652344 -0.296874 c -0.105469 0.054687 -0.207031 0.148437 -0.265625 0.285156 c 0.023438 -0.0625 0.050782 -0.121094 0.050782 -0.121094 s 0.09375 -0.097656 0.09375 -0.097656 c 0 0.003906 0.0625 -0.039063 0.0625 -0.039063 s 0.039062 -0.015625 0.058593 -0.023437 z m 0 0"/>
    <path d="m 5.496094 8.289062 c 0.25 0.570313 0.699218 1.042969 1.257812 1.320313 c 0.554688 0.28125 1.25 0.351563 1.886719 0.046875 c 0.382813 -0.179688 0.695313 -0.492188 0.878906 -0.878906 c 0.179688 -0.390625 0.21875 -0.886719 -0.015625 -1.328125 c -0.136718 -0.257813 -0.34375 -0.457031 -0.617187 -0.578125 c -0.273438 -0.117188 -0.648438 -0.136719 -0.957031 0.050781 c -0.179688 0.105469 -0.304688 0.253906 -0.382813 0.453125 c -0.078125 0.203125 -0.082031 0.496094 0.078125 0.726562 c 0.089844 0.128907 0.191406 0.210938 0.351562 0.265626 c 0.15625 0.050781 0.417969 0.039062 0.601563 -0.113282 c 0.019531 -0.019531 0.019531 -0.042968 0.035156 -0.0625 c -0.007812 0.054688 0.027344 0.101563 0 0.160156 c -0.078125 0.164063 -0.238281 0.324219 -0.402343 0.402344 c -0.339844 0.160156 -0.679688 0.128906 -1.015626 -0.035156 c -0.332031 -0.167969 -0.632812 -0.484375 -0.78125 -0.832031 c -0.273437 -0.621094 -0.203124 -1.253907 0.101563 -1.832031 c 0.300781 -0.578126 0.84375 -1.070313 1.453125 -1.316407 c 2.027344 -0.816406 4.25 0.582031 4.992188 2.550781 c 0.054687 0.144532 0.101562 0.289063 0.144531 0.4375 c 0.613281 2.234376 -0.441407 4.691407 -2.324219 6.070313 l 0.589844 0.804687 c 2.195312 -1.605468 3.4375 -4.449218 2.699218 -7.140624 c -0.050781 -0.175782 -0.109374 -0.351563 -0.171874 -0.523438 c -0.921876 -2.441406 -3.6875 -4.183594 -6.300782 -3.128906 c -0.84375 0.34375 -1.554687 0.984375 -1.96875 1.785156 c -0.417968 0.796875 -0.53125 1.777344 -0.132812 2.695312 z m 2.65625 -0.007812 s 0.003906 -0.011719 0.003906 -0.011719 c 0.003906 -0.023437 0.085938 -0.480469 0.085938 -0.480469 l 0.046874 -0.371093 h 0.003907 c 0.078125 0.027343 0.109375 0.050781 0.152343 0.113281 c 0.046876 0.066406 0.042969 0.175781 0.03125 0.207031 c -0.011718 0.03125 -0.011718 0.027344 -0.035156 0.042969 c 0.011719 -0.007812 0 -0.007812 0.046875 0.011719 c 0.042969 0.015625 0.105469 0.078125 0.128907 0.121093 c 0.027343 0.054688 -0.007813 0.109376 0 0.160157 c -0.0625 0.074219 -0.132813 0.152343 -0.214844 0.179687 c -0.105469 0.035156 -0.179688 0.027344 -0.234375 0.015625 c 0.011719 0.007813 0.042969 0.019531 0.042969 0.019531 z m 0.582031 -0.417969 c 0.007813 -0.117187 -0.023437 -0.25 -0.113281 -0.371093 c 0.039062 0.050781 0.082031 0.105468 0.082031 0.105468 s 0.035156 0.128906 0.035156 0.128906 v 0.074219 s 0 0.042969 -0.003906 0.0625 z m 0 0"/>
</svg>
