<?xml version="1.0" encoding="UTF-8" standalone="no"?>
<!-- Created with Inkscape (http://www.inkscape.org/) -->

<svg
   inkscape:export-ydpi="96"
   inkscape:export-xdpi="96"
   inkscape:export-filename="Template.png"
   width="192"
   height="152"
   id="svg11300"
   sodipodi:version="0.32"
   inkscape:version="1.2 (dc2aedaf03, 2022-05-15)"
   sodipodi:docname="app.drey.Warp.Source.svg"
   inkscape:output_extension="org.inkscape.output.svg.inkscape"
   version="1.0"
   style="display:inline;enable-background:new"
   viewBox="0 0 192 152"
   xmlns:inkscape="http://www.inkscape.org/namespaces/inkscape"
   xmlns:sodipodi="http://sodipodi.sourceforge.net/DTD/sodipodi-0.dtd"
   xmlns:xlink="http://www.w3.org/1999/xlink"
   xmlns="http://www.w3.org/2000/svg"
   xmlns:svg="http://www.w3.org/2000/svg"
   xmlns:rdf="http://www.w3.org/1999/02/22-rdf-syntax-ns#"
   xmlns:cc="http://creativecommons.org/ns#"
   xmlns:dc="http://purl.org/dc/elements/1.1/">
  <title
     id="title4162">Adwaita Icon Template</title>
  <defs
     id="defs3">
    <linearGradient
       inkscape:collect="always"
       id="linearGradient28775">
      <stop
         style="stop-color:#0011d5;stop-opacity:1"
         offset="0"
         id="stop28771" />
      <stop
         style="stop-color:#5a00c4;stop-opacity:1"
         offset="1"
         id="stop28773" />
    </linearGradient>
    <linearGradient
       inkscape:collect="always"
       id="linearGradient7303">
      <stop
         style="stop-color:#0092dc;stop-opacity:1"
         offset="0"
         id="stop7299" />
      <stop
         style="stop-color:#7300ee;stop-opacity:1"
         offset="1"
         id="stop7301" />
    </linearGradient>
    <linearGradient
       inkscape:collect="always"
       id="spiral5">
      <stop
         style="stop-color:#0000dc;stop-opacity:1"
         offset="0"
         id="stop5077" />
      <stop
         style="stop-color:#b700d8;stop-opacity:1"
         offset="1"
         id="stop5079" />
    </linearGradient>
    <linearGradient
       inkscape:collect="always"
       id="spiral3">
      <stop
         style="stop-color:#2a00d7;stop-opacity:1"
         offset="0"
         id="stop5810" />
      <stop
         style="stop-color:#a500a6;stop-opacity:1"
         offset="1"
         id="stop5812" />
    </linearGradient>
    <linearGradient
       inkscape:collect="always"
       xlink:href="#spiral1"
       id="linearGradient4650-3"
       x1="-32.208172"
       y1="409.03159"
       x2="290.45239"
       y2="376.7464"
       gradientUnits="userSpaceOnUse" />
    <linearGradient
       inkscape:collect="always"
       id="spiral1">
      <stop
         style="stop-color:#003ba2;stop-opacity:1"
         offset="0"
         id="stop5394" />
      <stop
         style="stop-color:#0d00ad;stop-opacity:1"
         offset="0.30347145"
         id="stop35135" />
      <stop
         style="stop-color:#b1006f;stop-opacity:1"
         offset="1"
         id="stop5396" />
    </linearGradient>
    <linearGradient
       inkscape:collect="always"
       xlink:href="#spiral2"
       id="linearGradient4650"
       x1="83.499115"
       y1="259.5914"
       x2="298.11478"
       y2="469.09717"
       gradientUnits="userSpaceOnUse" />
    <linearGradient
       inkscape:collect="always"
       id="spiral2">
      <stop
         style="stop-color:#002fe8;stop-opacity:1"
         offset="0"
         id="stop4644" />
      <stop
         style="stop-color:#982ae9;stop-opacity:1"
         offset="0.58974355"
         id="stop29475" />
      <stop
         style="stop-color:#c500ee;stop-opacity:1"
         offset="1"
         id="stop4646" />
    </linearGradient>
    <radialGradient
       inkscape:collect="always"
       xlink:href="#linearGradient7303"
       id="radialGradient7112"
       cx="67.395325"
       cy="78.078407"
       fx="67.395325"
       fy="78.078407"
       r="66.149475"
       gradientTransform="matrix(0.99346458,0.11414081,-0.06961016,0.60587643,5.8755067,23.079984)"
       gradientUnits="userSpaceOnUse" />
    <clipPath
       clipPathUnits="userSpaceOnUse"
       id="clipPath23563">
      <circle
         style="vector-effect:non-scaling-stroke;fill:#130010;fill-opacity:1;stroke:none;stroke-width:0.136005;stroke-miterlimit:4;stroke-dasharray:none;stroke-opacity:1;-inkscape-stroke:hairline;paint-order:stroke fill markers"
         id="circle23565"
         cx="64"
         cy="236"
         r="60" />
    </clipPath>
    <linearGradient
       inkscape:collect="always"
       xlink:href="#spiral3"
       id="linearGradient29065"
       x1="383.59393"
       y1="564.13605"
       x2="-30.721367"
       y2="226.68523"
       gradientUnits="userSpaceOnUse" />
    <linearGradient
       inkscape:collect="always"
       xlink:href="#spiral5"
       id="linearGradient34005"
       x1="96.999573"
       y1="102"
       x2="10.99957"
       y2="48"
       gradientUnits="userSpaceOnUse" />
    <linearGradient
       inkscape:collect="always"
       xlink:href="#linearGradient28775"
       id="linearGradient35974"
       x1="68"
       y1="26"
       x2="116"
       y2="42"
       gradientUnits="userSpaceOnUse" />
  </defs>
  <sodipodi:namedview
     stroke="#ef2929"
     fill="#f57900"
     id="base"
     pagecolor="#ffffff"
     bordercolor="#666666"
     borderopacity="0.25490196"
     inkscape:pageopacity="0.0"
     inkscape:pageshadow="2"
     inkscape:zoom="1.4142136"
     inkscape:cx="9.1923882"
     inkscape:cy="86.267027"
     inkscape:current-layer="layer1"
     showgrid="false"
     inkscape:grid-bbox="true"
     inkscape:document-units="px"
     inkscape:showpageshadow="false"
     inkscape:window-width="3440"
     inkscape:window-height="1371"
     inkscape:window-x="0"
     inkscape:window-y="0"
     width="400px"
     height="300px"
     inkscape:snap-nodes="true"
     inkscape:snap-bbox="true"
     objecttolerance="7"
     gridtolerance="12"
     guidetolerance="13"
     inkscape:window-maximized="1"
     inkscape:pagecheckerboard="false"
     showguides="false"
     inkscape:guide-bbox="true"
     inkscape:locked="false"
     inkscape:measure-start="0,0"
     inkscape:measure-end="0,0"
     inkscape:object-nodes="true"
     inkscape:bbox-nodes="true"
     inkscape:snap-global="true"
     inkscape:object-paths="true"
     inkscape:snap-intersection-paths="true"
     inkscape:snap-bbox-edge-midpoints="true"
     inkscape:snap-bbox-midpoints="true"
     showborder="true"
     inkscape:snap-center="true"
     inkscape:snap-object-midpoints="true"
     inkscape:snap-midpoints="true"
     inkscape:snap-smooth-nodes="true"
     inkscape:snap-text-baseline="true"
     borderlayer="true"
     inkscape:deskcolor="#d1d1d1">
    <inkscape:grid
       type="xygrid"
       id="grid5883"
       spacingx="2"
       spacingy="2"
       enabled="true"
       visible="true"
       empspacing="4"
       originx="8"
       originy="8" />
    <sodipodi:guide
       position="72,16"
       orientation="0,1"
       id="guide1073"
       inkscape:locked="false"
       inkscape:label=""
       inkscape:color="rgb(0,0,255)" />
    <sodipodi:guide
       position="20,72"
       orientation="1,0"
       id="guide1075"
       inkscape:locked="false"
       inkscape:label=""
       inkscape:color="rgb(0,0,255)" />
    <sodipodi:guide
       position="72,112"
       orientation="0,1"
       id="guide1099"
       inkscape:locked="false"
       inkscape:label=""
       inkscape:color="rgb(0,0,255)" />
    <sodipodi:guide
       position="72,136"
       orientation="0,1"
       id="guide993"
       inkscape:locked="false"
       inkscape:label=""
       inkscape:color="rgb(0,0,255)" />
    <sodipodi:guide
       position="112,72"
       orientation="1,0"
       id="guide995"
       inkscape:locked="false"
       inkscape:label=""
       inkscape:color="rgb(0,0,255)" />
    <sodipodi:guide
       position="8.0000001,72"
       orientation="1,0"
       id="guide867"
       inkscape:locked="false"
       inkscape:label=""
       inkscape:color="rgb(0,0,255)" />
    <sodipodi:guide
       position="128,72"
       orientation="1,0"
       id="guide869"
       inkscape:locked="false"
       inkscape:label=""
       inkscape:color="rgb(0,0,255)" />
    <sodipodi:guide
       position="72,124"
       orientation="0,1"
       id="guide871"
       inkscape:locked="false"
       inkscape:label=""
       inkscape:color="rgb(0,0,255)" />
    <inkscape:grid
       type="xygrid"
       id="grid873"
       spacingx="1"
       spacingy="1"
       empspacing="8"
       color="#000000"
       opacity="0.49019608"
       empcolor="#000000"
       empopacity="0.08627451"
       dotted="true"
       originx="8"
       originy="8" />
    <sodipodi:guide
       position="32,72"
       orientation="1,0"
       id="guide877"
       inkscape:locked="false"
       inkscape:label=""
       inkscape:color="rgb(0,0,255)" />
    <sodipodi:guide
       position="124,72"
       orientation="1,0"
       id="guide879"
       inkscape:locked="false"
       inkscape:label=""
       inkscape:color="rgb(0,0,255)" />
    <sodipodi:guide
       position="72,128"
       orientation="0,1"
       id="guide881"
       inkscape:locked="false"
       inkscape:label=""
       inkscape:color="rgb(0,0,255)" />
    <sodipodi:guide
       position="72,20"
       orientation="0,1"
       id="guide883"
       inkscape:locked="false"
       inkscape:label=""
       inkscape:color="rgb(0,0,255)" />
    <sodipodi:guide
       position="16,60"
       orientation="1,0"
       id="guide885"
       inkscape:locked="false"
       inkscape:label=""
       inkscape:color="rgb(0,0,255)" />
    <sodipodi:guide
       position="136,72"
       orientation="1,0"
       id="guide887"
       inkscape:locked="false"
       inkscape:label=""
       inkscape:color="rgb(0,0,255)" />
    <sodipodi:guide
       position="72,8"
       orientation="0,1"
       id="guide897"
       inkscape:locked="false"
       inkscape:label=""
       inkscape:color="rgb(0,0,255)" />
    <sodipodi:guide
       position="72,32"
       orientation="0,1"
       id="guide899"
       inkscape:locked="false"
       inkscape:label=""
       inkscape:color="rgb(0,0,255)" />
    <sodipodi:guide
       position="264,264"
       orientation="0.70710678,-0.70710678"
       id="guide950"
       inkscape:locked="false"
       inkscape:label=""
       inkscape:color="rgb(0,0,255)" />
    <sodipodi:guide
       position="72,72"
       orientation="0.70710678,0.70710678"
       id="guide952"
       inkscape:locked="false"
       inkscape:label=""
       inkscape:color="rgb(0,0,255)" />
  </sodipodi:namedview>
  <metadata
     id="metadata4">
    <rdf:RDF>
      <cc:Work
         rdf:about="">
        <dc:format>image/svg+xml</dc:format>
        <dc:type
           rdf:resource="http://purl.org/dc/dcmitype/StillImage" />
        <dc:creator>
          <cc:Agent>
            <dc:title>GNOME Design Team</dc:title>
          </cc:Agent>
        </dc:creator>
        <dc:source />
        <cc:license
           rdf:resource="http://creativecommons.org/licenses/by-sa/4.0/" />
        <dc:title>Adwaita Icon Template</dc:title>
        <dc:subject>
          <rdf:Bag />
        </dc:subject>
        <dc:date />
        <dc:rights>
          <cc:Agent>
            <dc:title />
          </cc:Agent>
        </dc:rights>
        <dc:publisher>
          <cc:Agent>
            <dc:title />
          </cc:Agent>
        </dc:publisher>
        <dc:identifier />
        <dc:relation />
        <dc:language />
        <dc:coverage />
        <dc:description />
        <dc:contributor>
          <cc:Agent>
            <dc:title />
          </cc:Agent>
        </dc:contributor>
      </cc:Work>
      <cc:License
         rdf:about="http://creativecommons.org/licenses/by-sa/4.0/">
        <cc:permits
           rdf:resource="http://creativecommons.org/ns#Reproduction" />
        <cc:permits
           rdf:resource="http://creativecommons.org/ns#Distribution" />
        <cc:requires
           rdf:resource="http://creativecommons.org/ns#Notice" />
        <cc:requires
           rdf:resource="http://creativecommons.org/ns#Attribution" />
        <cc:permits
           rdf:resource="http://creativecommons.org/ns#DerivativeWorks" />
        <cc:requires
           rdf:resource="http://creativecommons.org/ns#ShareAlike" />
      </cc:License>
    </rdf:RDF>
  </metadata>
  <g
     id="layer1"
     inkscape:label="App Icon"
     inkscape:groupmode="layer"
     style="display:inline"
     transform="translate(8,-156)">
    <g
       inkscape:groupmode="layer"
       id="layer4"
       inkscape:label="template"
       style="display:inline"
       sodipodi:insensitive="true">
      <rect
         inkscape:label="0"
         y="172"
         x="9.2651362e-08"
         height="128"
         width="128"
         id="hicolor"
         style="display:inline;overflow:visible;visibility:visible;fill:#f0f0f0;fill-opacity:0;fill-rule:nonzero;stroke:none;stroke-width:0.5;marker:none;enable-background:accumulate" />
      <rect
         style="display:inline;overflow:visible;visibility:visible;fill:#f0f0f0;fill-opacity:0;fill-rule:nonzero;stroke:none;stroke-width:0.5;marker:none;enable-background:accumulate"
         id="symbolic"
         width="16"
         height="16"
         x="160"
         y="172"
         inkscape:label="0" />
    </g>
    <g
       inkscape:groupmode="layer"
       id="layer2"
       inkscape:label="baseplate"
       style="display:inline"
       sodipodi:insensitive="true">
      <g
         style="display:inline;fill:#000000;enable-background:new"
         transform="matrix(7.9911709,0,0,8.0036407,-167.7909,-4846.0776)"
         id="g12027"
         inkscape:export-xdpi="12"
         inkscape:export-ydpi="12" />
      <rect
         style="display:inline;overflow:visible;visibility:visible;fill:#f0f0f0;fill-opacity:1;fill-rule:nonzero;stroke:none;stroke-width:0.5;marker:none;enable-background:accumulate"
         id="128"
         width="128"
         height="128"
         x="9.2651362e-08"
         y="172"
         inkscape:label="0" />
      <g
         id="g883"
         style="fill:none;fill-opacity:0;stroke:#a579b3;stroke-opacity:1"
         transform="translate(-24,24)" />
      <g
         id="g900"
         style="fill:none;fill-opacity:0;stroke:#a579b3;stroke-opacity:1"
         transform="translate(-24,24)" />
      <rect
         inkscape:label=""
         y="172"
         x="160"
         height="16"
         width="16"
         id="16"
         style="display:inline;overflow:visible;visibility:visible;fill:#f0f0f0;fill-opacity:1;fill-rule:nonzero;stroke:none;stroke-width:0.5;marker:none;enable-background:accumulate" />
      <text
         xml:space="preserve"
         style="font-style:normal;font-variant:normal;font-weight:bold;font-stretch:normal;font-size:4px;line-height:125%;font-family:Cantarell;-inkscape-font-specification:'Cantarell, Bold';text-align:start;writing-mode:lr-tb;text-anchor:start;display:inline;fill:#000000;fill-opacity:1;stroke:none;stroke-width:0.332649;enable-background:new"
         x="0"
         y="167"
         id="text863"
         inkscape:label="icon-name"><tspan
           style="font-size:4px;stroke-width:0.332649"
           sodipodi:role="line"
           id="tspan861"
           x="0"
           y="167">Hicolor</tspan></text>
      <text
         inkscape:label="icon-name"
         id="text867"
         y="167"
         x="160"
         style="font-style:normal;font-variant:normal;font-weight:bold;font-stretch:normal;font-size:4px;line-height:125%;font-family:Cantarell;-inkscape-font-specification:'Cantarell, Bold';text-align:start;writing-mode:lr-tb;text-anchor:start;display:inline;fill:#000000;fill-opacity:1;stroke:none;stroke-width:0.332649;enable-background:new"
         xml:space="preserve"><tspan
           y="167"
           x="160"
           id="tspan865"
           sodipodi:role="line"
           style="font-size:4px;stroke-width:0.332649">Symbolic</tspan></text>
    </g>
    <g
       inkscape:groupmode="layer"
       id="layer9"
       inkscape:label="icons"
       style="display:inline" />
    <g
       inkscape:groupmode="layer"
       id="layer3"
       inkscape:label="grid"
       style="display:inline"
       sodipodi:insensitive="true">
      <circle
         cx="64.000031"
         cy="236"
         r="59.504131"
         id="circle2892"
         style="display:inline;opacity:0.1;vector-effect:none;fill:none;fill-opacity:1;stroke:#000000;stroke-width:0.99000001;stroke-linecap:butt;stroke-linejoin:miter;stroke-miterlimit:4;stroke-dasharray:0.99000001, 0.99000001;stroke-dashoffset:0;stroke-opacity:1;marker:none;marker-start:none;marker-mid:none;marker-end:none;paint-order:normal;enable-background:new" />
      <rect
         ry="7.9292889"
         rx="8.701004"
         y="180.49496"
         x="20.495007"
         height="111.01005"
         width="87.009987"
         id="rect2894"
         style="display:inline;opacity:0.1;vector-effect:none;fill:none;fill-opacity:1;stroke:#000000;stroke-width:0.99000001;stroke-linecap:butt;stroke-linejoin:miter;stroke-miterlimit:4;stroke-dasharray:0.99000001, 0.99000001;stroke-dashoffset:0;stroke-opacity:1;marker:none;marker-start:none;marker-mid:none;marker-end:none;paint-order:normal;enable-background:new" />
      <rect
         ry="7.9238095"
         rx="7.9238095"
         y="184.49524"
         x="12.495266"
         height="103.00952"
         width="103.00952"
         id="rect2896"
         style="display:inline;opacity:0.1;vector-effect:none;fill:none;fill-opacity:1;stroke:#000000;stroke-width:0.99000001;stroke-linecap:butt;stroke-linejoin:miter;stroke-miterlimit:4;stroke-dasharray:0.99000001, 0.99000001;stroke-dashoffset:0;stroke-opacity:1;marker:none;marker-start:none;marker-mid:none;marker-end:none;paint-order:normal;enable-background:new" />
      <rect
         ry="8.701005"
         rx="7.9292889"
         y="200.49496"
         x="8.4950066"
         height="87.010048"
         width="111.01004"
         id="rect2898"
         style="display:inline;opacity:0.1;vector-effect:none;fill:none;fill-opacity:1;stroke:#000000;stroke-width:0.99000001;stroke-linecap:butt;stroke-linejoin:miter;stroke-miterlimit:4;stroke-dasharray:0.99000001, 0.99000001;stroke-dashoffset:0;stroke-opacity:1;marker:none;marker-start:none;marker-mid:none;marker-end:none;paint-order:normal;enable-background:new" />
      <path
         inkscape:connector-curvature="0"
         id="path2900"
         d="M 2.6203015e-5,288.99999 H 128.00003"
         style="display:inline;fill:none;stroke:#62a0ea;stroke-width:2;stroke-linecap:butt;stroke-linejoin:miter;stroke-miterlimit:4;stroke-dasharray:none;stroke-opacity:1;enable-background:new" />
    </g>
    <g
       id="g23532"
       clip-path="url(#clipPath23563)">
      <rect
         style="fill:#5c009d;fill-opacity:1;stroke:none;stroke-width:13;stroke-miterlimit:4;stroke-dasharray:none;stroke-opacity:1;paint-order:stroke fill markers"
         id="rect7741"
         width="120"
         height="120"
         x="4"
         y="176" />
      <path
         sodipodi:type="spiral"
         style="display:inline;fill:none;fill-rule:evenodd;stroke:url(#radialGradient7112);stroke-width:13;stroke-miterlimit:4;stroke-dasharray:none;enable-background:new"
         id="path7092"
         sodipodi:cx="78"
         sodipodi:cy="60"
         sodipodi:expansion="4"
         sodipodi:revolution="3.1493866"
         sodipodi:radius="88.640656"
         sodipodi:argument="-16.952942"
         sodipodi:t0="0"
         transform="translate(-2.845425,165.00031)"
         d="m 78,60 c -3.76e-4,0.0011 -0.0024,-3.71e-4 -0.0033,-0.0011 -0.01782,-0.01501 0.01006,-0.04484 0.02136,-0.05222 0.101816,-0.06659 0.218766,0.06075 0.252061,0.144601 0.144103,0.362898 -0.248318,0.686093 -0.558484,0.762355 -0.942234,0.231673 -1.674698,-0.731117 -1.795601,-1.557703 -0.296446,-2.026715 1.73069,-3.480015 3.544014,-3.617284 3.846764,-0.2912 6.465204,3.531911 6.545877,7.02624 C 86.160029,69.381307 79.522833,73.766022 73.38563,73.657698 62.552151,73.466482 55.619096,62.661844 56.123009,52.608672 56.95905,35.92948 73.66848,25.460983 89.265551,26.656011 113.88409,28.542253 129.10428,53.326563 126.81893,76.493894 123.35649,111.59395 87.845731,133.03536 54.639753,129.14209 28.688331,126.0994 6.0243979,109.36965 -6.513483,86.732695" />
      <path
         sodipodi:type="spiral"
         style="fill:none;fill-rule:evenodd;stroke:url(#linearGradient34005);stroke-width:13.6;stroke-miterlimit:4;stroke-dasharray:none"
         id="path4527"
         sodipodi:cx="70"
         sodipodi:cy="76"
         sodipodi:expansion="4"
         sodipodi:revolution="3.2775855"
         sodipodi:radius="74.794785"
         sodipodi:argument="-28.458374"
         sodipodi:t0="0"
         transform="translate(-2.99957,166)"
         d="m 70,76 c -8.3e-4,1.54e-4 -6.23e-4,-0.0017 -4.63e-4,-0.0025 0.0032,-0.01646 0.03168,-0.0094 0.04029,-0.0049 0.07755,0.04055 0.03866,0.158679 -0.0023,0.209019 -0.177251,0.217876 -0.517932,0.08496 -0.674702,-0.083 -0.476243,-0.510237 -0.128913,-1.308112 0.347604,-1.67421 1.168377,-0.897638 2.79248,-0.135134 3.515266,0.95515 1.533308,2.312914 0.05227,5.299049 -2.113284,6.576451 -4.137617,2.440672 -9.220628,-0.187074 -11.307203,-4.078274 -3.683253,-6.868803 0.666327,-15.014821 7.155002,-18.227809 10.765344,-5.33066 23.204042,1.484989 27.929416,11.696966 C 102.34819,87.485543 92.131001,105.74238 76.783348,112.4409 53.530627,122.58961 27.60214,107.82203 18.38887,85.607234 4.8999867,53.083197 25.602321,17.269255 56.767352,4.9127369 60.791993,3.3170202 64.957878,2.0804515 69.198567,1.2095093" />
      <path
         sodipodi:type="spiral"
         style="mix-blend-mode:normal;fill:none;fill-opacity:1;fill-rule:nonzero;stroke:url(#linearGradient29065);stroke-width:60.6365;stroke-linecap:butt;stroke-linejoin:miter;stroke-miterlimit:4;stroke-dasharray:none;stroke-opacity:1"
         id="path1596-5-2"
         sodipodi:cx="155.42836"
         sodipodi:cy="351.92755"
         sodipodi:expansion="4.0799999"
         sodipodi:revolution="6.0172176"
         sodipodi:radius="357.06885"
         sodipodi:argument="-17.332886"
         sodipodi:t0="0"
         transform="matrix(0.21239862,0,0,0.22521799,32.525176,156.94641)"
         d="m 155.42836,351.92755 c 1e-5,2.8e-4 -5.6e-4,1.3e-4 -8.2e-4,5e-5 -0.005,-0.002 -0.002,-0.0113 7e-5,-0.014 0.0176,-0.0256 0.0577,-0.006 0.0736,0.01 0.0709,0.0734 0.007,0.19057 -0.0601,0.23955 -0.20856,0.15209 -0.48571,-0.0131 -0.59832,-0.20387 -0.28103,-0.47609 0.0807,-1.04526 0.51881,-1.26379 0.94329,-0.4705 1.9982,0.23252 2.37762,1.10686 0.73427,1.692 -0.51599,3.50087 -2.09499,4.10979 -2.81874,1.08701 -5.73729,-0.98907 -6.65884,-3.63551 -1.54435,-4.43493 1.72057,-8.91952 5.90641,-10.25229 6.66702,-2.12279 13.28789,2.79023 15.14682,9.11164 2.83973,9.65666 -4.28887,19.11132 -13.48134,21.6286 -13.56077,3.71349 -26.68747,-6.31842 -30.01345,-19.27209 -4.76331,-18.55167 8.99207,-36.34302 26.76708,-40.6471 24.81721,-6.00929 48.4338,12.43434 53.90537,36.27634 7.47247,32.56081 -16.78116,63.34502 -48.13688,70.19431 C 117.0778,428.4908 77.587994,397.13612 69.128956,356.60317 57.989943,303.22867 97.918527,253.28579 149.52472,242.9623 216.45498,229.57334 278.82191,279.74294 291.28813,344.5668 307.2374,427.50234 244.9528,504.50183 164.5026,519.41358 62.829536,538.25905 -31.262656,461.76601 -48.948119,363.00048 -71.052197,239.55893 21.974928,125.64809 142.04108,104.83439 290.59696,79.081936 427.33243,191.21367 451.65612,335.87821 481.47503,513.22535 347.41048,676.0857 174.52116,704.3293 c -12.70735,2.0759 -25.52761,3.45775 -38.38492,4.14555" />
      <path
         sodipodi:type="spiral"
         style="fill:none;fill-rule:evenodd;stroke:url(#linearGradient35974);stroke-width:12;stroke-miterlimit:4;stroke-dasharray:none"
         id="path28646"
         sodipodi:cx="72.126793"
         sodipodi:cy="79.657898"
         sodipodi:expansion="4.0799999"
         sodipodi:revolution="2.1832657"
         sodipodi:radius="67.7873"
         sodipodi:argument="-14.291825"
         sodipodi:t0="0"
         d="m 72.126793,79.657898 c -5.03e-4,-0.0032 0.0065,-0.0022 0.0097,-0.0015 0.0667,0.01442 0.03464,0.130982 0.01585,0.165258 -0.177432,0.323616 -0.674209,0.145537 -0.881834,-0.03025 -0.925213,-0.783323 -0.310976,-2.243852 0.424553,-2.902856 2.283703,-2.046104 5.756207,-0.424322 7.314652,1.696288 3.888978,5.291815 0.29266,12.44998 -4.625095,15.555148 C 63.796777,100.82534 50.490847,93.774008 44.964035,83.892663 34.268621,64.770418 46.888775,41.901069 64.824882,32.821767 85.911362,22.14774 111.59094,27.912293 129.05159,42.85185"
         transform="translate(-8,160)" />
      <path
         sodipodi:type="spiral"
         style="fill:none;fill-opacity:1;fill-rule:nonzero;stroke:url(#linearGradient4650-3);stroke-width:42.8038;stroke-linecap:butt;stroke-linejoin:miter;stroke-miterlimit:4;stroke-dasharray:none;stroke-opacity:1"
         id="path1596-5"
         sodipodi:cx="155.42836"
         sodipodi:cy="351.92755"
         sodipodi:expansion="4.0799999"
         sodipodi:revolution="5.3211613"
         sodipodi:radius="216.2337"
         sodipodi:argument="-17.332886"
         sodipodi:t0="0"
         transform="matrix(0.30992322,0,0,0.30973948,15.98206,127.30677)"
         d="m 155.42836,351.92755 c 1e-5,2.8e-4 -5.6e-4,1.3e-4 -8.2e-4,5e-5 -0.005,-0.002 -0.002,-0.0113 7e-5,-0.014 0.0176,-0.0256 0.0577,-0.006 0.0736,0.01 0.0709,0.0734 0.007,0.19057 -0.0601,0.23955 -0.20856,0.15209 -0.48571,-0.0131 -0.59832,-0.20387 -0.28103,-0.47609 0.0807,-1.04526 0.51881,-1.26379 0.94329,-0.4705 1.99819,0.23253 2.37762,1.10686 0.73427,1.692 -0.51599,3.50086 -2.09499,4.10979 -2.81873,1.08701 -5.73728,-0.98907 -6.65884,-3.63552 -1.54435,-4.43492 1.72057,-8.9195 5.90641,-10.25228 6.66702,-2.12278 13.28789,2.79024 15.14682,9.11164 2.83972,9.65665 -4.28887,19.11131 -13.48134,21.62858 -13.56076,3.7135 -26.68746,-6.31841 -30.01343,-19.27207 -4.76331,-18.55166 8.99206,-36.343 26.76707,-40.64708 24.81719,-6.00929 48.43377,12.43434 53.90533,36.27632 7.47246,32.56079 -16.78115,63.34499 -48.13686,70.19427 C 117.07782,428.49076 77.588037,397.13609 69.129004,356.60317 57.989998,303.22869 97.918559,253.28584 149.52473,242.96236 216.45495,229.57341 278.82184,279.74298 291.28806,344.5668 307.23731,427.5023 244.95275,504.50175 164.50259,519.41348 62.829588,538.25895 -31.262552,461.76595 -48.948006,363.00047 c -5.575939,-31.13916 -3.853631,-63.42372 4.626828,-93.88075" />
      <path
         sodipodi:type="spiral"
         style="fill:none;fill-opacity:1;fill-rule:nonzero;stroke:url(#linearGradient4650);stroke-width:33.8835;stroke-linecap:round;stroke-linejoin:miter;stroke-miterlimit:4;stroke-dasharray:none;stroke-opacity:1"
         id="path1596"
         sodipodi:cx="155.42836"
         sodipodi:cy="351.92755"
         sodipodi:expansion="4.0799999"
         sodipodi:revolution="5.1848435"
         sodipodi:radius="194.5087"
         sodipodi:argument="-17.332886"
         sodipodi:t0="0"
         transform="matrix(0.39139736,0,0,0.39139736,3.318668,98.396611)"
         d="m 155.42836,351.92755 c 1e-5,2.8e-4 -5.6e-4,1.3e-4 -8.2e-4,5e-5 -0.005,-0.002 -0.002,-0.0113 7e-5,-0.014 0.0176,-0.0256 0.0577,-0.006 0.0736,0.01 0.0709,0.0734 0.007,0.19057 -0.0601,0.23955 -0.20856,0.15209 -0.48571,-0.0131 -0.59832,-0.20387 -0.28103,-0.47609 0.0807,-1.04526 0.51881,-1.26379 0.9433,-0.4705 1.9982,0.23252 2.37762,1.10686 0.73427,1.692 -0.51599,3.50087 -2.09499,4.10979 -2.81874,1.08701 -5.73729,-0.98907 -6.65885,-3.63551 -1.54435,-4.43493 1.72058,-8.91952 5.90642,-10.2523 6.66702,-2.12278 13.2879,2.79024 15.14683,9.11165 2.83973,9.65666 -4.28887,19.11132 -13.48135,21.6286 -13.56077,3.7135 -26.68748,-6.31842 -30.01345,-19.27209 -4.76332,-18.55168 8.99207,-36.34303 26.76708,-40.64711 24.81722,-6.0093 48.43382,12.43434 53.90538,36.27635 7.47247,32.56082 -16.78117,63.34504 -48.13689,70.19433 C 117.07779,428.49082 77.587972,397.13613 69.128932,356.60317 57.989916,303.22865 97.918511,253.28576 149.52472,242.96227 216.455,229.57331 278.82195,279.74292 291.28817,344.56679 307.23744,427.50236 244.95283,504.50188 164.5026,519.41362 93.449327,532.58361 21.076338,498.32796 -18.556932,438.89163" />
    </g>
    <g
       id="g42381" />
    <g
       id="g134716"
       transform="translate(122,156)">
      <path
         style="color:#000000;fill:#000000;fill-opacity:0;-inkscape-stroke:none"
         d="m 176,24 c -9e-5,-3.8e-5 5e-5,-2.01e-4 1.1e-4,-2.72e-4 0.001,-0.0015 0.004,0.0012 0.005,0.0022 0.006,0.0096 -0.007,0.0196 -0.0146,0.02218 -0.0346,0.01147 -0.0625,-0.02723 -0.0679,-0.05647 -0.0167,-0.09078 0.0795,-0.154511 0.15839,-0.161254 0.19696,-0.01683 0.32437,0.187907 0.32694,0.362963 0.006,0.376891 -0.38446,0.607976 -0.72501,0.59483 -0.65905,-0.02544 -1.04836,-0.708568 -1.00003,-1.31178 0.0863,-1.076818 1.20745,-1.695853 2.20311,-1.582936 1.66853,0.189227 2.60814,1.936116 2.3893,3.491604 -0.34855,2.477508 -2.9575,3.850324 -5.28275,3.470274 -2.73397,-0.446855 -4.66825,-2.905744 -4.96134,-5.581773"
         id="path134712" />
      <path
         style="color:#000000;fill:#000000;-inkscape-stroke:none"
         d="m 176.94141,21.373047 c -0.62037,-0.07035 -1.25378,0.08156 -1.77344,0.425781 -0.51966,0.344218 -0.92806,0.910609 -0.98438,1.613281 -0.0339,0.423122 0.0792,0.847389 0.32422,1.199219 0.24503,0.35183 0.65815,0.633117 1.15625,0.652344 0.29048,0.01121 0.56886,-0.07054 0.8086,-0.248047 0.23974,-0.177508 0.44132,-0.490843 0.43554,-0.853516 -0.003,-0.205931 -0.0666,-0.390398 -0.20117,-0.558593 -0.13461,-0.168196 -0.38901,-0.318759 -0.66797,-0.294922 -0.15544,0.01329 -0.27964,0.06172 -0.40429,0.171875 -0.12466,0.110158 -0.24615,0.344242 -0.20313,0.578125 0.005,0.02594 0.0267,0.03978 0.0332,0.0625 -0.0416,-0.03413 -0.0994,-0.02845 -0.13672,-0.08203 -0.1023,-0.146896 -0.16091,-0.366785 -0.14648,-0.546875 0.03,-0.374144 0.2257,-0.655054 0.53711,-0.861328 0.31141,-0.206273 0.73603,-0.306233 1.11133,-0.263672 0.67352,0.07638 1.18798,0.454514 1.53711,1.003907 0.34912,0.549392 0.50418,1.265509 0.41211,1.919922 -0.30415,2.161889 -2.62971,3.386402 -4.70703,3.046875 -2.48285,-0.405811 -4.27415,-2.670269 -4.54493,-5.142579 l -0.99218,0.109375 c 0.3154,2.879743 2.39186,5.531633 5.37695,6.019532 2.57317,0.420572 5.46447,-1.099457 5.85742,-3.892578 0.12677,-0.901074 -0.0755,-1.837427 -0.55859,-2.597657 -0.48311,-0.760229 -1.27453,-1.348094 -2.26953,-1.460937 z m -1.32227,2.304687 c 0,0 0.009,0.0074 0.01,0.0078 C 175.6471,23.700923 176,24 176,24 l 0.29883,0.224609 c -0.001,9.5e-4 -9.4e-4,0.005 -0.002,0.0059 -0.061,0.05391 -0.0973,0.06768 -0.17382,0.07422 -0.082,0.007 -0.17429,-0.0499 -0.19532,-0.07617 -0.0203,-0.02541 -0.0192,-0.02313 -0.0195,-0.05078 2.3e-4,0.01422 0.008,0.0042 -0.0312,0.0332 -0.0391,0.02897 -0.12375,0.05467 -0.17383,0.05273 -0.0587,-0.0023 -0.0893,-0.06178 -0.13671,-0.08203 -0.0333,-0.09116 -0.0664,-0.192703 -0.0488,-0.275391 0.0226,-0.106547 0.0674,-0.170444 0.10351,-0.212891 -0.01,0.0077 -0.0371,0.02927 -0.0371,0.0293 z m 0.0703,0.710938 c 0.0975,0.06502 0.22944,0.106116 0.37891,0.08984 -0.0656,0.0076 -0.13293,0.01561 -0.13281,0.01563 2.2e-4,2.9e-5 -0.12915,-0.03526 -0.12891,-0.03516 2.4e-4,1.03e-4 -0.0647,-0.03336 -0.0644,-0.0332 4.3e-4,2.66e-4 -0.0349,-0.02347 -0.0527,-0.03711 z"
         id="path134714" />
    </g>
    <g
       id="g134979"
       transform="translate(100)">
      <g
         id="path42657"
         transform="translate(-8,156)">
        <path
           style="color:#000000;fill:#000000;fill-opacity:0;-inkscape-stroke:none"
           d="m 176,24 c -9e-5,-3.8e-5 5e-5,-2.01e-4 1.1e-4,-2.72e-4 0.001,-0.0015 0.004,0.0012 0.005,0.0022 0.006,0.0096 -0.007,0.0196 -0.0146,0.02218 -0.0346,0.01147 -0.0625,-0.02723 -0.0679,-0.05647 -0.0167,-0.09078 0.0795,-0.154511 0.15839,-0.161254 0.19696,-0.01683 0.32437,0.187907 0.32694,0.362963 0.006,0.376891 -0.38446,0.607976 -0.72501,0.59483 -0.65905,-0.02544 -1.04836,-0.708568 -1.00003,-1.31178 0.0863,-1.076818 1.20745,-1.695853 2.20311,-1.582936 1.66853,0.189227 2.60814,1.936116 2.3893,3.491604 -0.34855,2.477508 -2.9575,3.850324 -5.28275,3.470274 -2.73397,-0.446855 -4.66825,-2.905744 -4.96134,-5.581773"
           id="path8094" />
        <path
           style="color:#000000;fill:#000000;-inkscape-stroke:none"
           d="m 176.94141,21.373047 c -0.62037,-0.07035 -1.25378,0.08156 -1.77344,0.425781 -0.51966,0.344218 -0.92806,0.910609 -0.98438,1.613281 -0.0339,0.423122 0.0792,0.847389 0.32422,1.199219 0.24503,0.35183 0.65815,0.633117 1.15625,0.652344 0.29048,0.01121 0.56886,-0.07054 0.8086,-0.248047 0.23974,-0.177508 0.44132,-0.490843 0.43554,-0.853516 -0.003,-0.205931 -0.0666,-0.390398 -0.20117,-0.558593 -0.13461,-0.168196 -0.38901,-0.318759 -0.66797,-0.294922 -0.15544,0.01329 -0.27964,0.06172 -0.40429,0.171875 -0.12466,0.110158 -0.24615,0.344242 -0.20313,0.578125 0.005,0.02594 0.0267,0.03978 0.0332,0.0625 -0.0416,-0.03413 -0.0994,-0.02845 -0.13672,-0.08203 -0.1023,-0.146896 -0.16091,-0.366785 -0.14648,-0.546875 0.03,-0.374144 0.2257,-0.655054 0.53711,-0.861328 0.31141,-0.206273 0.73603,-0.306233 1.11133,-0.263672 0.67352,0.07638 1.18798,0.454514 1.53711,1.003907 0.34912,0.549392 0.50418,1.265509 0.41211,1.919922 -0.30415,2.161889 -2.62971,3.386402 -4.70703,3.046875 -2.48285,-0.405811 -4.27415,-2.670269 -4.54493,-5.142579 l -0.99218,0.109375 c 0.3154,2.879743 2.39186,5.531633 5.37695,6.019532 2.57317,0.420572 5.46447,-1.099457 5.85742,-3.892578 0.12677,-0.901074 -0.0755,-1.837427 -0.55859,-2.597657 -0.48311,-0.760229 -1.27453,-1.348094 -2.26953,-1.460937 z m -1.32227,2.304687 c 0,0 0.009,0.0074 0.01,0.0078 C 175.6471,23.700923 176,24 176,24 l 0.29883,0.224609 c -0.001,9.5e-4 -9.4e-4,0.005 -0.002,0.0059 -0.061,0.05391 -0.0973,0.06768 -0.17382,0.07422 -0.082,0.007 -0.17429,-0.0499 -0.19532,-0.07617 -0.0203,-0.02541 -0.0192,-0.02313 -0.0195,-0.05078 2.3e-4,0.01422 0.008,0.0042 -0.0312,0.0332 -0.0391,0.02897 -0.12375,0.05467 -0.17383,0.05273 -0.0587,-0.0023 -0.0893,-0.06178 -0.13671,-0.08203 -0.0333,-0.09116 -0.0664,-0.192703 -0.0488,-0.275391 0.0226,-0.106547 0.0674,-0.170444 0.10351,-0.212891 -0.01,0.0077 -0.0371,0.02927 -0.0371,0.0293 z m 0.0703,0.710938 c 0.0975,0.06502 0.22944,0.106116 0.37891,0.08984 -0.0656,0.0076 -0.13293,0.01561 -0.13281,0.01563 2.2e-4,2.9e-5 -0.12915,-0.03526 -0.12891,-0.03516 2.4e-4,1.03e-4 -0.0647,-0.03336 -0.0644,-0.0332 4.3e-4,2.66e-4 -0.0349,-0.02347 -0.0527,-0.03711 z"
           id="path8091" />
      </g>
      <g
         id="path42657-3"
         transform="rotate(120,126.92141,99.53187)">
        <path
           style="color:#000000;fill:#000000;fill-opacity:0;-inkscape-stroke:none"
           d="m 176,24 c -9e-5,-3.8e-5 5e-5,-2.01e-4 1.1e-4,-2.72e-4 0.001,-0.0015 0.004,0.0012 0.005,0.0022 0.006,0.0096 -0.007,0.0196 -0.0146,0.02218 -0.0346,0.01147 -0.0625,-0.02723 -0.0679,-0.05647 -0.0167,-0.09078 0.0795,-0.154511 0.15839,-0.161254 0.19696,-0.01683 0.32437,0.187907 0.32694,0.362963 0.006,0.376891 -0.38446,0.607976 -0.72501,0.59483 -0.65905,-0.02544 -1.04836,-0.708568 -1.00003,-1.31178 0.0863,-1.076818 1.20745,-1.695853 2.20311,-1.582936 1.66853,0.189227 2.60814,1.936116 2.3893,3.491604 -0.34855,2.477508 -2.9575,3.850324 -5.28275,3.470274 -2.73397,-0.446855 -4.66825,-2.905744 -4.96134,-5.581773"
           id="path8106" />
        <path
           style="color:#000000;fill:#000000;-inkscape-stroke:none"
           d="m 176.94141,21.373047 c -0.62037,-0.07035 -1.25378,0.08156 -1.77344,0.425781 -0.51966,0.344218 -0.92806,0.910609 -0.98438,1.613281 -0.0339,0.423122 0.0792,0.847389 0.32422,1.199219 0.24503,0.35183 0.65815,0.633117 1.15625,0.652344 0.29048,0.01121 0.56886,-0.07054 0.8086,-0.248047 0.23974,-0.177508 0.44132,-0.490843 0.43554,-0.853516 -0.003,-0.205931 -0.0666,-0.390398 -0.20117,-0.558593 -0.13461,-0.168196 -0.38901,-0.318759 -0.66797,-0.294922 -0.15544,0.01329 -0.27964,0.06172 -0.40429,0.171875 -0.12466,0.110158 -0.24615,0.344242 -0.20313,0.578125 0.005,0.02594 0.0267,0.03978 0.0332,0.0625 -0.0416,-0.03413 -0.0994,-0.02845 -0.13672,-0.08203 -0.1023,-0.146896 -0.16091,-0.366785 -0.14648,-0.546875 0.03,-0.374144 0.2257,-0.655054 0.53711,-0.861328 0.31141,-0.206273 0.73603,-0.306233 1.11133,-0.263672 0.67352,0.07638 1.18798,0.454514 1.53711,1.003907 0.34912,0.549392 0.50418,1.265509 0.41211,1.919922 -0.30415,2.161889 -2.62971,3.386402 -4.70703,3.046875 -2.48285,-0.405811 -4.27415,-2.670269 -4.54493,-5.142579 l -0.99218,0.109375 c 0.3154,2.879743 2.39186,5.531633 5.37695,6.019532 2.57317,0.420572 5.46447,-1.099457 5.85742,-3.892578 0.12677,-0.901074 -0.0755,-1.837427 -0.55859,-2.597657 -0.48311,-0.760229 -1.27453,-1.348094 -2.26953,-1.460937 z m -1.32227,2.304687 c 0,0 0.009,0.0074 0.01,0.0078 C 175.6471,23.700923 176,24 176,24 l 0.29883,0.224609 c -0.001,9.5e-4 -9.4e-4,0.005 -0.002,0.0059 -0.061,0.05391 -0.0973,0.06768 -0.17382,0.07422 -0.082,0.007 -0.17429,-0.0499 -0.19532,-0.07617 -0.0203,-0.02541 -0.0192,-0.02313 -0.0195,-0.05078 2.3e-4,0.01422 0.008,0.0042 -0.0312,0.0332 -0.0391,0.02897 -0.12375,0.05467 -0.17383,0.05273 -0.0587,-0.0023 -0.0893,-0.06178 -0.13671,-0.08203 -0.0333,-0.09116 -0.0664,-0.192703 -0.0488,-0.275391 0.0226,-0.106547 0.0674,-0.170444 0.10351,-0.212891 -0.01,0.0077 -0.0371,0.02927 -0.0371,0.0293 z m 0.0703,0.710938 c 0.0975,0.06502 0.22944,0.106116 0.37891,0.08984 -0.0656,0.0076 -0.13293,0.01561 -0.13281,0.01563 2.2e-4,2.9e-5 -0.12915,-0.03526 -0.12891,-0.03516 2.4e-4,1.03e-4 -0.0647,-0.03336 -0.0644,-0.0332 4.3e-4,2.66e-4 -0.0349,-0.02347 -0.0527,-0.03711 z"
           id="path8103" />
      </g>
      <g
         id="path42657-3-6"
         transform="rotate(-120,217.09382,104.13447)">
        <path
           style="color:#000000;fill:#000000;fill-opacity:0;-inkscape-stroke:none"
           d="m 176,24 c -9e-5,-3.8e-5 5e-5,-2.01e-4 1.1e-4,-2.72e-4 0.001,-0.0015 0.004,0.0012 0.005,0.0022 0.006,0.0096 -0.007,0.0196 -0.0146,0.02218 -0.0346,0.01147 -0.0625,-0.02723 -0.0679,-0.05647 -0.0167,-0.09078 0.0795,-0.154511 0.15839,-0.161254 0.19696,-0.01683 0.32437,0.187907 0.32694,0.362963 0.006,0.376891 -0.38446,0.607976 -0.72501,0.59483 -0.65905,-0.02544 -1.04836,-0.708568 -1.00003,-1.31178 0.0863,-1.076818 1.20745,-1.695853 2.20311,-1.582936 1.66853,0.189227 2.60814,1.936116 2.3893,3.491604 -0.34855,2.477508 -2.9575,3.850326 -5.28275,3.470274 -0.16791,-0.02744 -0.3328,-0.06248 -0.49449,-0.104685 -2.47088,-0.645021 -4.19176,-2.965411 -4.46685,-5.477088"
           id="path8100" />
        <path
           style="color:#000000;fill:#000000;-inkscape-stroke:none"
           d="m 176.94141,21.373047 c -0.62037,-0.07035 -1.25378,0.08156 -1.77344,0.425781 -0.51966,0.344218 -0.92806,0.910609 -0.98438,1.613281 -0.0339,0.423122 0.0792,0.847389 0.32422,1.199219 0.24503,0.35183 0.65815,0.633117 1.15625,0.652344 0.29048,0.01121 0.56886,-0.07054 0.8086,-0.248047 0.23974,-0.177508 0.44132,-0.490843 0.43554,-0.853516 -0.003,-0.205931 -0.0666,-0.390398 -0.20117,-0.558593 -0.13461,-0.168196 -0.38901,-0.318759 -0.66797,-0.294922 -0.15544,0.01329 -0.27964,0.06172 -0.40429,0.171875 -0.12466,0.110158 -0.24615,0.344242 -0.20313,0.578125 0.005,0.02594 0.0267,0.03978 0.0332,0.0625 -0.0416,-0.03413 -0.0994,-0.02845 -0.13672,-0.08203 -0.1023,-0.146896 -0.16091,-0.366785 -0.14648,-0.546875 0.03,-0.374144 0.2257,-0.655054 0.53711,-0.861328 0.31141,-0.206273 0.73603,-0.306233 1.11133,-0.263672 0.67352,0.07638 1.18798,0.454514 1.53711,1.003907 0.34912,0.549392 0.50418,1.265509 0.41211,1.919922 -0.30415,2.161889 -2.62971,3.386403 -4.70703,3.046875 -0.15249,-0.02492 -0.30055,-0.0574 -0.44727,-0.0957 -2.24222,-0.585329 -3.84351,-2.726405 -4.09766,-5.046875 l -0.99218,0.109375 c 0.29603,2.70288 2.13639,5.201539 4.83593,5.90625 0.17665,0.04611 0.35769,0.08332 0.54102,0.113282 2.57317,0.420573 5.46447,-1.099457 5.85742,-3.892578 0.12677,-0.901074 -0.0755,-1.837427 -0.55859,-2.597657 -0.48311,-0.760229 -1.27453,-1.348094 -2.26953,-1.460937 z m -1.32227,2.304687 c 0,0 0.009,0.0074 0.01,0.0078 C 175.6471,23.700923 176,24 176,24 l 0.29883,0.224609 c -0.001,9.5e-4 -9.4e-4,0.005 -0.002,0.0059 -0.061,0.05391 -0.0973,0.06768 -0.17382,0.07422 -0.082,0.007 -0.17429,-0.0499 -0.19532,-0.07617 -0.0203,-0.02541 -0.0192,-0.02313 -0.0195,-0.05078 2.3e-4,0.01422 0.008,0.0042 -0.0312,0.0332 -0.0391,0.02897 -0.12375,0.05467 -0.17383,0.05273 -0.0587,-0.0023 -0.0893,-0.06178 -0.13671,-0.08203 -0.0333,-0.09116 -0.0664,-0.192703 -0.0488,-0.275391 0.0226,-0.106547 0.0674,-0.170444 0.10351,-0.212891 -0.01,0.0077 -0.0371,0.02927 -0.0371,0.0293 z m 0.0703,0.710938 c 0.0975,0.06502 0.22944,0.106116 0.37891,0.08984 -0.0656,0.0076 -0.13293,0.01561 -0.13281,0.01563 2.2e-4,2.9e-5 -0.12915,-0.03526 -0.12891,-0.03516 2.4e-4,1.03e-4 -0.0647,-0.03336 -0.0644,-0.0332 4.3e-4,2.66e-4 -0.0349,-0.02347 -0.0527,-0.03711 z"
           id="path8097" />
      </g>
    </g>
    <g
       id="g134722"
       transform="rotate(120,191.92141,137.05962)">
      <path
         style="color:#000000;fill:#000000;fill-opacity:0;-inkscape-stroke:none"
         d="m 176,24 c -9e-5,-3.8e-5 5e-5,-2.01e-4 1.1e-4,-2.72e-4 0.001,-0.0015 0.004,0.0012 0.005,0.0022 0.006,0.0096 -0.007,0.0196 -0.0146,0.02218 -0.0346,0.01147 -0.0625,-0.02723 -0.0679,-0.05647 -0.0167,-0.09078 0.0795,-0.154511 0.15839,-0.161254 0.19696,-0.01683 0.32437,0.187907 0.32694,0.362963 0.006,0.376891 -0.38446,0.607976 -0.72501,0.59483 -0.65905,-0.02544 -1.04836,-0.708568 -1.00003,-1.31178 0.0863,-1.076818 1.20745,-1.695853 2.20311,-1.582936 1.66853,0.189227 2.60814,1.936116 2.3893,3.491604 -0.34855,2.477508 -2.9575,3.850324 -5.28275,3.470274 -2.73397,-0.446855 -4.66825,-2.905744 -4.96134,-5.581773"
         id="path134718" />
      <path
         style="color:#000000;fill:#000000;-inkscape-stroke:none"
         d="m 176.94141,21.373047 c -0.62037,-0.07035 -1.25378,0.08156 -1.77344,0.425781 -0.51966,0.344218 -0.92806,0.910609 -0.98438,1.613281 -0.0339,0.423122 0.0792,0.847389 0.32422,1.199219 0.24503,0.35183 0.65815,0.633117 1.15625,0.652344 0.29048,0.01121 0.56886,-0.07054 0.8086,-0.248047 0.23974,-0.177508 0.44132,-0.490843 0.43554,-0.853516 -0.003,-0.205931 -0.0666,-0.390398 -0.20117,-0.558593 -0.13461,-0.168196 -0.38901,-0.318759 -0.66797,-0.294922 -0.15544,0.01329 -0.27964,0.06172 -0.40429,0.171875 -0.12466,0.110158 -0.24615,0.344242 -0.20313,0.578125 0.005,0.02594 0.0267,0.03978 0.0332,0.0625 -0.0416,-0.03413 -0.0994,-0.02845 -0.13672,-0.08203 -0.1023,-0.146896 -0.16091,-0.366785 -0.14648,-0.546875 0.03,-0.374144 0.2257,-0.655054 0.53711,-0.861328 0.31141,-0.206273 0.73603,-0.306233 1.11133,-0.263672 0.67352,0.07638 1.18798,0.454514 1.53711,1.003907 0.34912,0.549392 0.50418,1.265509 0.41211,1.919922 -0.30415,2.161889 -2.62971,3.386402 -4.70703,3.046875 -2.48285,-0.405811 -4.27415,-2.670269 -4.54493,-5.142579 l -0.99218,0.109375 c 0.3154,2.879743 2.39186,5.531633 5.37695,6.019532 2.57317,0.420572 5.46447,-1.099457 5.85742,-3.892578 0.12677,-0.901074 -0.0755,-1.837427 -0.55859,-2.597657 -0.48311,-0.760229 -1.27453,-1.348094 -2.26953,-1.460937 z m -1.32227,2.304687 c 0,0 0.009,0.0074 0.01,0.0078 C 175.6471,23.700923 176,24 176,24 l 0.29883,0.224609 c -0.001,9.5e-4 -9.4e-4,0.005 -0.002,0.0059 -0.061,0.05391 -0.0973,0.06768 -0.17382,0.07422 -0.082,0.007 -0.17429,-0.0499 -0.19532,-0.07617 -0.0203,-0.02541 -0.0192,-0.02313 -0.0195,-0.05078 2.3e-4,0.01422 0.008,0.0042 -0.0312,0.0332 -0.0391,0.02897 -0.12375,0.05467 -0.17383,0.05273 -0.0587,-0.0023 -0.0893,-0.06178 -0.13671,-0.08203 -0.0333,-0.09116 -0.0664,-0.192703 -0.0488,-0.275391 0.0226,-0.106547 0.0674,-0.170444 0.10351,-0.212891 -0.01,0.0077 -0.0371,0.02927 -0.0371,0.0293 z m 0.0703,0.710938 c 0.0975,0.06502 0.22944,0.106116 0.37891,0.08984 -0.0656,0.0076 -0.13293,0.01561 -0.13281,0.01563 2.2e-4,2.9e-5 -0.12915,-0.03526 -0.12891,-0.03516 2.4e-4,1.03e-4 -0.0647,-0.03336 -0.0644,-0.0332 4.3e-4,2.66e-4 -0.0349,-0.02347 -0.0527,-0.03711 z"
         id="path134720" />
    </g>
    <g
       id="g134728"
       transform="rotate(-120,282.09382,66.606708)">
      <path
         style="color:#000000;fill:#000000;fill-opacity:0;-inkscape-stroke:none"
         d="m 176,24 c -9e-5,-3.8e-5 5e-5,-2.01e-4 1.1e-4,-2.72e-4 0.001,-0.0015 0.004,0.0012 0.005,0.0022 0.006,0.0096 -0.007,0.0196 -0.0146,0.02218 -0.0346,0.01147 -0.0625,-0.02723 -0.0679,-0.05647 -0.0167,-0.09078 0.0795,-0.154511 0.15839,-0.161254 0.19696,-0.01683 0.32437,0.187907 0.32694,0.362963 0.006,0.376891 -0.38446,0.607976 -0.72501,0.59483 -0.65905,-0.02544 -1.04836,-0.708568 -1.00003,-1.31178 0.0863,-1.076818 1.20745,-1.695853 2.20311,-1.582936 1.66853,0.189227 2.60814,1.936116 2.3893,3.491604 -0.34855,2.477508 -2.9575,3.850326 -5.28275,3.470274 -0.16791,-0.02744 -0.3328,-0.06248 -0.49449,-0.104685 -2.47088,-0.645021 -4.19176,-2.965411 -4.46685,-5.477088"
         id="path134724" />
      <path
         style="color:#000000;fill:#000000;-inkscape-stroke:none"
         d="m 176.94141,21.373047 c -0.62037,-0.07035 -1.25378,0.08156 -1.77344,0.425781 -0.51966,0.344218 -0.92806,0.910609 -0.98438,1.613281 -0.0339,0.423122 0.0792,0.847389 0.32422,1.199219 0.24503,0.35183 0.65815,0.633117 1.15625,0.652344 0.29048,0.01121 0.56886,-0.07054 0.8086,-0.248047 0.23974,-0.177508 0.44132,-0.490843 0.43554,-0.853516 -0.003,-0.205931 -0.0666,-0.390398 -0.20117,-0.558593 -0.13461,-0.168196 -0.38901,-0.318759 -0.66797,-0.294922 -0.15544,0.01329 -0.27964,0.06172 -0.40429,0.171875 -0.12466,0.110158 -0.24615,0.344242 -0.20313,0.578125 0.005,0.02594 0.0267,0.03978 0.0332,0.0625 -0.0416,-0.03413 -0.0994,-0.02845 -0.13672,-0.08203 -0.1023,-0.146896 -0.16091,-0.366785 -0.14648,-0.546875 0.03,-0.374144 0.2257,-0.655054 0.53711,-0.861328 0.31141,-0.206273 0.73603,-0.306233 1.11133,-0.263672 0.67352,0.07638 1.18798,0.454514 1.53711,1.003907 0.34912,0.549392 0.50418,1.265509 0.41211,1.919922 -0.30415,2.161889 -2.62971,3.386403 -4.70703,3.046875 -0.15249,-0.02492 -0.30055,-0.0574 -0.44727,-0.0957 -2.24222,-0.585329 -3.84351,-2.726405 -4.09766,-5.046875 l -0.99218,0.109375 c 0.29603,2.70288 2.13639,5.201539 4.83593,5.90625 0.17665,0.04611 0.35769,0.08332 0.54102,0.113282 2.57317,0.420573 5.46447,-1.099457 5.85742,-3.892578 0.12677,-0.901074 -0.0755,-1.837427 -0.55859,-2.597657 -0.48311,-0.760229 -1.27453,-1.348094 -2.26953,-1.460937 z m -1.32227,2.304687 c 0,0 0.009,0.0074 0.01,0.0078 C 175.6471,23.700923 176,24 176,24 l 0.29883,0.224609 c -0.001,9.5e-4 -9.4e-4,0.005 -0.002,0.0059 -0.061,0.05391 -0.0973,0.06768 -0.17382,0.07422 -0.082,0.007 -0.17429,-0.0499 -0.19532,-0.07617 -0.0203,-0.02541 -0.0192,-0.02313 -0.0195,-0.05078 2.3e-4,0.01422 0.008,0.0042 -0.0312,0.0332 -0.0391,0.02897 -0.12375,0.05467 -0.17383,0.05273 -0.0587,-0.0023 -0.0893,-0.06178 -0.13671,-0.08203 -0.0333,-0.09116 -0.0664,-0.192703 -0.0488,-0.275391 0.0226,-0.106547 0.0674,-0.170444 0.10351,-0.212891 -0.01,0.0077 -0.0371,0.02927 -0.0371,0.0293 z m 0.0703,0.710938 c 0.0975,0.06502 0.22944,0.106116 0.37891,0.08984 -0.0656,0.0076 -0.13293,0.01561 -0.13281,0.01563 2.2e-4,2.9e-5 -0.12915,-0.03526 -0.12891,-0.03516 2.4e-4,1.03e-4 -0.0647,-0.03336 -0.0644,-0.0332 4.3e-4,2.66e-4 -0.0349,-0.02347 -0.0527,-0.03711 z"
         id="path134726" />
    </g>
    <g
       id="g135087"
       transform="rotate(-120,202.25857,138.34278)">
      <path
         id="path134916-4"
         style="display:inline;fill:#000000;stroke-width:6;stroke-linecap:round;stroke-linejoin:round;stroke-dashoffset:26.4;enable-background:new"
         d="m 187.75,170.63949 a 7,7 0 0 0 -7,7 7,7 0 0 0 1.7168,4.5918 7,7 0 0 0 0.55859,0.55859 c 1.18324,1.02919 2.79199,1.54376 4.35547,1.22852 2.09071,-0.42155 3.80254,-2.43178 3.3125,-4.62305 -0.32813,-1.46725 -1.76753,-2.671 -3.3125,-2.2832 -0.98569,0.24742 -1.79849,1.23961 -1.5,2.2832 0.16791,0.58698 0.75277,1.08036 1.375,0.95703 -1.36285,0.36642 -2.67257,-0.7024 -3.03906,-1.98828 -0.62951,-2.20873 1.08545,-4.31032 3.16406,-4.83399 3.258,-0.82081 6.29434,1.72665 6.98633,4.83204 0.0759,0.3408 0.12308,0.68012 0.15039,1.01562 a 7,7 0 0 0 0.23242,-1.73828 7,7 0 0 0 -7,-7 z" />
    </g>
    <g
       id="g135048"
       transform="translate(50,-48.5687)">
      <circle
         style="display:inline;fill:#000000;fill-opacity:1;stroke-width:6;stroke-linecap:round;stroke-linejoin:round;stroke-dashoffset:26.4;enable-background:new"
         id="circle135038"
         cx="168"
         cy="180"
         r="7" />
      <path
         sodipodi:type="spiral"
         style="fill:none;fill-rule:evenodd;stroke:#ffffff;stroke-width:0.646221"
         id="path135040"
         sodipodi:cx="176"
         sodipodi:cy="24"
         sodipodi:expansion="3.22"
         sodipodi:revolution="2.7083333"
         sodipodi:radius="7.4803147"
         sodipodi:argument="-20.682152"
         sodipodi:t0="0.56923068"
         d="m 176,25.218844 c -0.87974,0.292444 -1.74132,-0.393307 -1.97746,-1.21884 -0.39358,-1.375996 0.67782,-2.685192 1.97745,-3.011415 2.03706,-0.511326 3.93562,1.07681 4.36825,3.011402 0.64612,2.889225 -1.6116,5.540966 -4.36823,6.096793 -2.40729,0.485391 -4.89678,-0.51909 -6.47815,-2.356622"
         transform="matrix(0.7737287,0,0,0.7737287,31.309463,163.30779)" />
      <path
         sodipodi:type="spiral"
         style="fill:none;fill-rule:evenodd;stroke:#ffffff;stroke-width:0.305883"
         id="path135042"
         sodipodi:cx="176"
         sodipodi:cy="24"
         sodipodi:expansion="3.22"
         sodipodi:revolution="2.625"
         sodipodi:radius="6.7641807"
         sodipodi:argument="-20.682152"
         sodipodi:t0="0.58730072"
         d="m 176.00002,25.218838 c -0.87973,0.292455 -1.74133,-0.393283 -1.97747,-1.218809 -0.3936,-1.375986 0.67778,-2.68519 1.97741,-3.011429 2.03704,-0.51135 3.93561,1.076757 4.36827,3.011337 0.64615,2.889207 -1.61153,5.540967 -4.36814,6.096828 -1.12357,0.226563 -2.29984,0.132877 -3.38218,-0.238812"
         transform="matrix(1.6316475,0,0,1.637582,-119.68427,141.52242)" />
    </g>
    <path
       id="rect135188"
       style="fill:#241f31;fill-opacity:1;stroke:none;stroke-width:13;stroke-miterlimit:4;stroke-dasharray:none;stroke-opacity:1;paint-order:stroke fill markers"
       d="M 168 172 C 163.568 172 160 175.568 160 180 C 160 184.05973 162.995 187.39225 166.9043 187.92383 C 167.38084 187.92412 167.85518 187.97901 168.33203 187.89062 C 172.07456 187.19693 174.97474 183.61003 174.24219 179.80078 C 173.67892 176.87181 170.85745 174.60455 167.88477 175.19922 C 165.64343 175.64758 163.91036 177.81821 164.38281 180.08203 C 164.73047 181.74788 166.35275 183.03639 168.02148 182.67188 C 169.21109 182.41202 170.13082 181.24462 169.86133 180.07031 C 169.78801 179.75084 169.61545 179.46385 169.38867 179.24219 C 169.49511 179.39042 169.57965 179.55439 169.63086 179.72852 C 169.93611 180.76652 169.22383 181.70942 168.3125 181.95898 C 167.07342 182.2983 165.94183 181.43256 165.65625 180.32031 C 165.27184 178.82317 166.33333 177.45035 167.70117 177.11914 C 169.52314 176.67797 171.19662 177.98591 171.58398 179.67383 C 172.09441 181.89797 170.48346 183.94342 168.40039 184.39844 C 165.68532 184.99151 163.18563 183.00804 162.65039 180.44336 C 161.96023 177.13636 164.39413 174.09397 167.53906 173.46484 C 168.04069 173.3645 168.53707 173.32411 169.02344 173.33594 C 172.42799 173.41874 175.33289 176.10955 175.97852 179.4668 C 175.98866 179.51957 175.98116 179.57037 175.99023 179.62305 C 175.79423 175.36787 172.3053 172 168 172 z " />
    <g
       id="g135202"
       transform="matrix(0.13333333,0,0,0.13333333,185.68209,98.53333)"
       style="stroke-width:7.5">
      <g
         id="g135200"
         clip-path="url(#clipPath23563)"
         transform="translate(178.3843,225)"
         style="stroke-width:7.5">
        <rect
           style="fill:#241f31;fill-opacity:1;stroke:none;stroke-width:97.5;stroke-miterlimit:4;stroke-dasharray:none;stroke-opacity:1;paint-order:stroke fill markers"
           id="rect135196"
           width="120"
           height="120"
           x="4"
           y="176" />
        <path
           style="color:#000000;fill:#ffffff;stroke-width:7.5;stroke-linecap:round;-inkscape-stroke:none"
           d="m 174.64844,223.85937 c -9.31979,-0.22667 -18.83509,0.56739 -28.44727,2.49024 -60.263648,12.05535 -106.881112,70.34562 -93.656248,133.71484 10.256266,49.14468 58.123758,87.16735 110.150388,75.80274 39.91605,-8.7192 70.81402,-47.91585 61.03321,-90.53516 -7.42275,-32.34413 -39.49151,-57.40698 -74.4043,-48.95312 -26.21077,6.34673 -46.55548,32.63771 -39.18945,61.32617 5.47231,21.31304 27.15304,37.90232 50.89648,31.40039 17.46307,-4.78211 31.11088,-22.85959 25.26172,-42.75 -0.98121,-3.33665 -2.60693,-6.472 -4.64649,-9.3125 4.34553,4.24744 7.65173,9.74732 9.05664,15.86914 5.16411,22.50226 -12.44293,44.87218 -35.23828,49.85156 -31.97651,6.9849 -63.090152,-17.69994 -69.751949,-49.62109 -9.053145,-43.37971 24.186089,-84.97676 67.134769,-93.56836 56.96298,-11.39508 111.00931,32.06602 121.80273,88.1914 14.03729,72.99336 -41.52144,141.69762 -113.23633,154.99024 -63.850009,11.83483 -129.856315,-19.24798 -165.8749975,-73.26367 -5.1912742,-7.78412 -15.7097925,-9.88625 -23.4941405,-4.69532 -7.784798,5.19065 -9.887827,15.70929 -4.697266,23.49415 C 10.595434,513.14787 89.333454,550.57738 167.58984,536.07227 256.77526,519.54142 325.787,434.24481 307.92578,341.36719 295.55416,277.03524 239.88695,225.44611 174.64844,223.85937 Z"
           id="path135198"
           transform="matrix(0.39139736,0,0,0.39139736,3.318668,98.396611)"
           sodipodi:nodetypes="ssssssssscsssssscccsss" />
      </g>
    </g>
    <circle
       style="vector-effect:non-scaling-stroke;fill:#130010;fill-opacity:1;stroke:none;stroke-width:0.136005;stroke-miterlimit:4;stroke-dasharray:none;stroke-opacity:1;-inkscape-stroke:hairline;paint-order:stroke fill markers"
       id="circle135437"
       cx="218"
       cy="180"
       r="8" />
    <path
       style="color:#000000;fill:#ffffff;stroke-width:0.391397;stroke-linecap:round;-inkscape-stroke:none"
       d="m 219.02341,173.33527 c -0.48637,-0.0118 -0.98294,0.0296 -1.48456,0.12996 -3.14494,0.62913 -5.57773,3.67108 -4.88757,6.97809 0.53523,2.56467 3.03326,4.54894 5.74834,3.95586 2.08307,-0.45502 3.69552,-2.50055 3.1851,-4.7247 -0.38737,-1.68792 -2.06092,-2.99585 -3.88289,-2.55468 -1.36784,0.33121 -2.42956,1.70324 -2.04515,3.20039 0.28558,1.11225 1.41701,1.97798 2.6561,1.63867 0.91133,-0.24956 1.62356,-1.19296 1.31831,-2.23097 -0.0512,-0.17412 -0.13604,-0.33775 -0.24248,-0.48598 0.22678,0.22166 0.39932,0.50868 0.47263,0.82815 0.2695,1.17431 -0.64935,2.34171 -1.83895,2.60157 -1.66874,0.36452 -3.29245,-0.92369 -3.6401,-2.58954 -0.47245,-2.26383 1.26218,-4.43463 3.50352,-4.88299 2.97268,-0.59467 5.79316,1.67341 6.35643,4.60238 0.73255,3.80926 -2.16685,7.39468 -5.90939,8.08837 -3.33209,0.61762 -6.77672,-1.00448 -8.6564,-3.82336 -0.27091,-0.40622 -0.81984,-0.51592 -1.22607,-0.24503 -0.40626,0.27088 -0.51601,0.81981 -0.24514,1.22607 2.25695,3.38464 6.36599,5.33795 10.44991,4.58098 4.65425,-0.86268 8.25572,-5.314 7.32361,-10.16094 -0.64563,-3.35724 -3.5507,-6.04949 -6.95525,-6.1323 z"
       id="path135439"
       sodipodi:nodetypes="ssssssssscsssssscccsss"
       clip-path="none" />
  </g>
</svg>
