<?xml version="1.0" encoding="UTF-8"?>
<svg height="16px" viewBox="0 0 16 16" width="16px" xmlns="http://www.w3.org/2000/svg">
    <path d="m 8 1 c -3.867188 0 -7 3.160156 -7 7.058594 c 0 1.828125 0.691406 3.492187 1.820312 4.746094 c -0.765624 -1.015626 -1.230468 -2.277344 -1.230468 -3.648438 c 0 -3.347656 2.71875 -6.0625 6.070312 -6.0625 c 3.351563 0 6.066406 2.714844 6.066406 6.0625 c 0 2.792969 -1.894531 5.140625 -4.464843 5.84375 c 3.261719 -0.597656 5.738281 -3.476562 5.738281 -6.941406 c 0 -3.898438 -3.132812 -7.058594 -7 -7.058594 z m 0 0"/>
    <path d="m 9.355469 10.710938 c 1.246093 -0.65625 1.890625 -2.132813 1.464843 -3.535157 c -0.484374 -1.574219 -2.144531 -2.460937 -3.707031 -1.972656 c -1.566406 0.488281 -2.441406 2.160156 -1.960937 3.738281 c 0.230468 0.742188 0.714844 1.328125 1.328125 1.691406 c -0.4375 -0.3125 -0.78125 -0.765624 -0.949219 -1.320312 c -0.417969 -1.355469 0.347656 -2.796875 1.703125 -3.21875 s 2.792969 0.335938 3.207031 1.6875 c 0.34375 1.128906 -0.132812 2.320312 -1.085937 2.929688 z m 0 0"/>
    <path d="m 12.859375 10.820312 c 0.871094 -2.359374 -0.324219 -4.988281 -2.664063 -5.863281 c -0.121093 -0.046875 -0.242187 -0.085937 -0.363281 -0.117187 c 1.878907 0.886718 2.792969 3.105468 2.050781 5.117187 c -0.78125 2.121094 -3.101562 3.207031 -5.1875 2.425781 c -1.488281 -0.558593 -2.449218 -1.917968 -2.59375 -3.421874 c -0.117187 1.953124 1.03125 3.832031 2.941407 4.546874 c 2.34375 0.878907 4.945312 -0.324218 5.816406 -2.6875 z m 0 0"/>
    <path d="m 2.722656 8.136719 c -0.09375 1.082031 0.300782 2.089843 0.992188 2.816406 c -0.230469 -0.6875 -0.320313 -1.46875 -0.226563 -2.28125 c 0.210938 -1.875 1.324219 -3.367187 2.703125 -3.84375 c -1.796875 0.046875 -3.3125 1.453125 -3.46875 3.308594 z m 0 0"/>
    <path d="m 8 7.425781 c 0.679688 0 1.234375 0.558594 1.234375 1.246094 s -0.554687 1.242187 -1.234375 1.242187 s -1.234375 -0.554687 -1.234375 -1.242187 s 0.554687 -1.246094 1.234375 -1.246094 z m 0 0"/>
</svg>
