<?xml version="1.0" encoding="UTF-8"?>
<svg height="128px" viewBox="0 0 128 128" width="128px" xmlns="http://www.w3.org/2000/svg">
    <path d="m 124 64 c 0 33.136719 -26.863281 60 -60 60 s -60 -26.863281 -60 -60 s 26.863281 -60 60 -60 s 60 26.863281 60 60 z m 0 0" fill="#141160"/>
    <path d="m 106.429688 106.425781 c -23.433594 23.433594 -61.425782 23.429688 -84.859376 -0.003906 c -23.421874 -23.429687 -23.421874 -61.414063 0 -84.847656" fill="#241b7a"/>
    <path d="m 115.351562 64 c 0 28.363281 -22.992187 51.351562 -51.351562 51.351562 s -51.347656 -22.988281 -51.347656 -51.351562 c 0 -28.359375 22.988281 -51.347656 51.347656 -51.347656 s 51.351562 22.988281 51.351562 51.347656 z m 0 0" fill="#241b7a"/>
    <path d="m 64.003906 115.355469 c -28.363281 -0.003907 -51.351562 -22.996094 -51.355468 -51.355469 c 0.003906 -28.359375 22.996093 -51.347656 51.355468 -51.351562" fill="#33248e"/>
    <path d="m 106.46875 64 c 0 23.457031 -19.011719 42.472656 -42.46875 42.472656 s -42.46875 -19.015625 -42.46875 -42.472656 c 0 -23.453125 19.011719 -42.46875 42.46875 -42.46875 s 42.46875 19.015625 42.46875 42.46875 z m 0 0" fill="#33248e"/>
    <path d="m 33.964844 94.035156 c -16.582032 -16.589844 -16.578125 -43.476562 0.003906 -60.066406 c 16.585938 -16.582031 43.476562 -16.582031 60.0625 0" fill="#432da0"/>
    <path d="m 95.847656 64 c 0 17.589844 -14.257812 31.847656 -31.847656 31.847656 s -31.847656 -14.257812 -31.847656 -31.847656 c 0 -17.585938 14.257812 -31.84375 31.847656 -31.84375 s 31.847656 14.257812 31.847656 31.84375 z m 0 0" fill="#432da0"/>
    <path d="m 64 95.847656 c -17.585938 0 -31.84375 -14.257812 -31.84375 -31.847656 c 0 -17.585938 14.257812 -31.84375 31.84375 -31.84375" fill="#583caf"/>
    <path d="m 23.664062 114.511719 s -1.167968 -1.152344 -3.347656 -3.3125 c -2.128906 -2.179688 -5.101562 -5.699219 -8.148437 -10.65625 c -2.851563 -5.046875 -5.796875 -11.636719 -7.203125 -19.757813 c -1.394532 -8.050781 -1.558594 -17.667968 1.417968 -27.535156 c 0.765626 -2.449219 1.523438 -4.972656 2.671876 -7.398438 c 0.964843 -2.511718 2.351562 -4.871093 3.707031 -7.316406 c 2.925781 -4.722656 6.480469 -9.382812 10.890625 -13.359375 c 0.933594 -0.964843 2.222656 -1.9375 3.488281 -2.902343 l 1.902344 -1.453126 l 1.980469 -1.234374 c 1.316406 -0.824219 2.648437 -1.667969 4.09375 -2.3125 c 1.421874 -0.675782 2.824218 -1.445313 4.34375 -1.949219 c 5.945312 -2.371094 12.515624 -3.554688 19.1875 -3.488281 c 13.347656 0.113281 27.171874 5.597656 37.003906 16.105468 c 9.988281 10.347656 14.078125 26.539063 10.039062 40.746094 c -1.972656 7.113281 -5.941406 13.625 -11.070312 18.820312 c -2.421875 2.378907 -5.859375 4.914063 -9.125 6.535157 c -3.339844 1.722656 -6.984375 2.765625 -10.644532 3.320312 c -7.347656 1.171875 -14.9375 -0.28125 -21.355468 -3.652343 c -3.183594 -1.734376 -6.082032 -3.917969 -8.605469 -6.429688 l -1.703125 -1.914062 c -0.542969 -0.664063 -1.164062 -1.542969 -1.71875 -2.316407 c -1.03125 -1.578125 -1.878906 -3.136719 -2.578125 -4.816406 c -2.792969 -6.65625 -2.933594 -14.1875 -0.546875 -20.636719 c 1.167969 -3.230468 2.917969 -6.203125 5.070312 -8.742187 l 1.703126 -1.816407 l 0.105468 -0.113281 l 0.246094 -0.238281 l 0.203125 -0.175781 l 0.40625 -0.347657 l 0.8125 -0.703124 c 0.679687 -0.523438 1.464844 -1.085938 2.195313 -1.574219 c 0.734374 -0.414063 1.449218 -0.855469 2.199218 -1.214844 c 6.027344 -2.925781 12.996094 -3.003906 18.703125 -0.632813 c 2.859375 1.171876 5.402344 2.921876 7.460938 5.015626 l 0.199219 0.191406 l 0.101562 0.097656 c -0.007812 -0.007812 0.445312 0.492188 0.285156 0.324219 l 0.289063 0.378906 l 0.578125 0.75 c 0.386718 0.535156 0.765625 0.933594 1.148437 1.566406 c 0.386719 0.703125 0.757813 1.414063 1.109375 2.128907 l 0.515625 1.058593 c 0.132813 0.355469 0.203125 0.703125 0.308594 1.054688 c 1.722656 5.539062 0.6875 11.441406 -2.238281 15.683593 c -0.761719 1.035157 -1.652344 1.953126 -2.460938 2.886719 c -0.097656 0.09375 0.117188 -0.085937 -0.242187 0.230469 l -0.082031 0.0625 l -0.167969 0.121094 l -0.320313 0.246094 l -0.644531 0.484374 c -0.429687 0.324219 -0.808594 0.648438 -1.464844 0.953126 c -0.597656 0.296874 -1.1875 0.589843 -1.773437 0.878906 c -0.589844 0.285156 -1.171875 0.355468 -1.75 0.53125 c -1.140625 0.382812 -2.316406 0.402344 -3.453125 0.464844 c -4.636719 0.121093 -8.644531 -2.1875 -11.0625 -5.234376 c -0.261719 -0.355468 -0.515625 -0.667968 -0.761719 -1.050781 c -0.222656 -0.453125 -0.449219 -0.902343 -0.675781 -1.351562 c -0.503907 -0.890625 -0.550781 -1.78125 -0.8125 -2.636719 c -0.09375 -0.871094 -0.164063 -1.742188 -0.117188 -2.566406 c 0.152344 -0.820313 0.121094 -1.648438 0.4375 -2.378906 c 0.886719 -2.976563 2.972657 -5.269532 5.023438 -6.234376 c 2.226562 -1.09375 4.28125 -0.992187 5.820312 -0.652343 c 3.070313 0.960937 3.976563 2.570312 4.035157 2.449219 c -0.03125 0.117187 -1.179688 -1.367188 -4.140626 -1.921876 c -1.449218 -0.175781 -3.398437 0.03125 -5.085937 1.113282 c -0.429687 0.1875 -0.847656 0.625 -1.289063 1.027344 l -0.332031 0.304687 c 0.003907 0.011719 -0.140625 0.207031 -0.203125 0.292969 c -0.167968 0.234375 -0.34375 0.46875 -0.511718 0.707031 c -0.683594 0.949219 -1.179688 2.117187 -1.425782 3.382813 c -0.21875 0.613281 -0.097656 1.304687 -0.175781 1.960937 c 0.027344 0.671875 0.15625 1.355469 0.285156 2.03125 c 0.277344 0.625 0.386719 1.402344 0.792969 1.917969 l 0.496094 0.863281 c 0.238281 0.308594 0.554687 0.628906 0.832031 0.949219 c 2.058594 2.070312 5.296875 3.707031 8.710937 3.285156 c 0.839844 -0.128906 1.703126 -0.183594 2.5 -0.546875 c 0.390626 -0.160156 0.859376 -0.238281 1.1875 -0.453125 c 0.339844 -0.207031 0.675782 -0.402344 1.019532 -0.589844 c 0.597656 -0.25 1.753906 -1.453125 2.171875 -1.792968 c 0.535156 -0.769532 1.148437 -1.492188 1.652343 -2.285157 c 1.898438 -3.28125 2.34375 -7.542969 0.90625 -11.308593 c -0.078124 -0.234376 -0.140624 -0.492188 -0.234374 -0.707032 l -0.351563 -0.578125 c -0.226563 -0.382812 -0.433594 -0.773437 -0.632813 -1.175781 c -0.269531 -0.425781 -0.785156 -0.933594 -1.164062 -1.402344 l -0.621094 -0.71875 l -0.3125 -0.359375 c -0.214844 -0.230469 0.195313 0.21875 0.125 0.148438 l -0.082031 -0.0625 l -0.15625 -0.128907 c -1.605469 -1.441406 -3.511719 -2.574218 -5.597656 -3.28125 c -4.144531 -1.441406 -9.023438 -1.167968 -13.039063 1.023438 c -0.503906 0.269531 -0.972656 0.605469 -1.460937 0.890625 l -1.226563 0.949219 l -0.777344 0.734375 l -0.386718 0.367187 l -0.199219 0.1875 c -0.0625 0.054688 0.210937 -0.191406 0.058594 -0.046875 l -0.070313 0.085938 l -1.191406 1.382812 c -1.480469 1.925781 -2.636719 4.121094 -3.371094 6.46875 c -1.457031 4.6875 -1.277344 10.003907 0.828125 14.605469 c 0.507813 1.140625 1.171875 2.269531 1.851563 3.261719 c 0.371094 0.457031 0.625 0.867187 1.0625 1.390625 l 1.433594 1.535156 c 1.953124 1.824219 4.140624 3.382812 6.527343 4.605469 c 4.8125 2.3125 10.390625 3.296875 15.769531 2.40625 c 2.675782 -0.441407 5.335938 -1.199219 7.746094 -2.492188 c 2.503906 -1.339843 4.363282 -2.652343 6.613282 -4.820312 c 3.953124 -4.097657 6.953124 -9.132813 8.449218 -14.640625 c 3.179688 -11.003906 0.273438 -23.476563 -7.613281 -31.785156 c -3.84375 -4.074219 -8.679687 -7.617188 -13.832031 -9.960938 c -5.183594 -2.375 -10.792969 -3.671875 -16.367188 -3.878906 c -11.15625 -0.441406 -22.070312 3.554687 -29.914062 10.140625 c -8.113282 6.847656 -13.648438 15.59375 -16.816406 24.375 c -0.84375 2.183593 -1.3125 4.441406 -1.933594 6.59375 c -0.335938 2.21875 -0.894532 4.367187 -1.050782 6.503906 c -0.160156 2.136719 -0.464843 4.230469 -0.351562 6.273437 c 0.003906 1.023438 0.015625 2.03125 0.019531 3.027344 c 0.011719 0.992188 0.183594 1.960938 0.261719 2.925782 c 0.773438 7.695312 2.921875 14.230468 5.222656 19.363281 c 2.539063 5.035156 4.914063 8.792969 6.824219 11.210937 c 1.933594 2.386719 2.960937 3.664063 2.960937 3.664063 z m 0 0" fill="#ac79e2"/>
    <path d="m 54.09375 63.253906 c 0.222656 -0.496094 0.472656 -0.976562 0.777344 -1.390625 c 0.171875 -0.242187 0.339844 -0.476562 0.507812 -0.707031 c 0.0625 -0.089844 0.210938 -0.285156 0.203125 -0.296875 l 0.332031 -0.300781 c 0.445313 -0.40625 0.863282 -0.839844 1.289063 -1.03125 c 0.101563 -0.0625 0.207031 -0.097656 0.308594 -0.15625 c 0.074219 -0.113282 0.117187 -0.242188 0.195312 -0.347656 c 0.171875 -0.238282 0.34375 -0.476563 0.511719 -0.707032 c 0.0625 -0.089844 0.207031 -0.28125 0.203125 -0.296875 l 0.164063 -0.152343 c -0.652344 0.136718 -1.316407 0.332031 -2.015626 0.675781 c -0.261718 0.121093 -0.523437 0.269531 -0.789062 0.433593 c -0.582031 0.875 -1.070312 1.871094 -1.390625 2.957032 c -0.175781 0.414062 -0.242187 0.859375 -0.296875 1.320312 z m 0 0" fill="#814fc1"/>
    <path d="m 36.621094 18.167969 c -1.523438 0.503906 -2.925782 1.269531 -4.34375 1.953125 c -1.445313 0.640625 -2.777344 1.480468 -4.097656 2.308594 l -1.976563 1.234374 l -1.902344 1.453126 c -1.269531 0.964843 -2.558593 1.941406 -3.488281 2.902343 c -0.203125 0.183594 -0.378906 0.382813 -0.578125 0.566407 c -2.878906 3.125 -5.351563 6.519531 -7.476563 9.953124 c -1.355468 2.445313 -2.738281 4.804688 -3.703124 7.316407 c -1.152344 2.425781 -1.90625 4.949219 -2.671876 7.398437 c -2.972656 9.863282 -2.8125 19.480469 -1.414062 27.535156 c 0.347656 2.019532 0.792969 3.945313 1.308594 5.773438 c -0.179688 -1.125 -0.339844 -2.265625 -0.457032 -3.449219 c -0.082031 -0.960937 -0.25 -1.925781 -0.261718 -2.921875 c -0.003906 -0.996094 -0.015625 -2.003906 -0.023438 -3.023437 c -0.109375 -2.050781 0.195313 -4.140625 0.355469 -6.273438 c 0.15625 -2.144531 0.714844 -4.289062 1.050781 -6.507812 c 0.621094 -2.152344 1.089844 -4.410157 1.9375 -6.589844 c 2.898438 -8.039063 7.804688 -16.035156 14.847656 -22.585937 c 1.496094 -1.613282 3.082032 -3.171876 4.808594 -4.628907 c 7.84375 -6.589843 18.753906 -10.585937 29.910156 -10.144531 c 5.574219 0.207031 11.1875 1.507812 16.367188 3.878906 c 5.152344 2.34375 9.988281 5.890625 13.832031 9.964844 c 7.886719 8.308594 10.792969 20.777344 7.613281 31.785156 c -1.496093 5.507813 -4.496093 10.539063 -8.445312 14.640625 c -0.507812 0.488281 -0.988281 0.917969 -1.464844 1.324219 c -0.445312 0.519531 -0.902344 1.027344 -1.378906 1.515625 c -2.25 2.164063 -4.109375 3.480469 -6.609375 4.820313 c -2.414063 1.292968 -5.070313 2.050781 -7.746094 2.492187 c -5.382812 0.890625 -10.960937 -0.097656 -15.773437 -2.402344 c -2.386719 -1.222656 -4.574219 -2.789062 -6.527344 -4.609375 l -1.433594 -1.53125 c -0.4375 -0.527344 -0.6875 -0.933594 -1.058594 -1.394531 c -0.679687 -0.988281 -1.347656 -2.121094 -1.851562 -3.265625 c -2.109375 -4.59375 -2.289062 -9.910156 -0.828125 -14.601562 c 0.730469 -2.347657 1.890625 -4.542969 3.371094 -6.46875 l 1.1875 -1.382813 l 0.074219 -0.089844 c 0.148437 -0.144531 -0.125 0.105469 -0.0625 0.046875 l 0.199218 -0.1875 l 0.386719 -0.363281 l 0.777344 -0.734375 l 0.492187 -0.378906 l 0.972656 -1.132813 l 0.074219 -0.089843 c 0.148438 -0.144532 -0.125 0.105468 -0.058593 0.046874 l 0.199218 -0.1875 l 0.386719 -0.363281 l 0.777344 -0.738281 l 1.226562 -0.945312 c 0.488281 -0.285157 0.957031 -0.625 1.457031 -0.890626 c 4.023438 -2.195312 8.898438 -2.46875 13.042969 -1.023437 c 2.085938 0.703125 3.992188 1.835937 5.597657 3.28125 l 0.15625 0.128906 l 0.078124 0.0625 c 0.070313 0.070313 -0.339843 -0.378906 -0.125 -0.148437 l 0.3125 0.359375 l 0.621094 0.71875 c 0.382813 0.46875 0.898438 0.972656 1.167969 1.402343 c 0.195313 0.402344 0.40625 0.792969 0.628906 1.175782 l 0.351563 0.574218 c 0.097656 0.21875 0.15625 0.472657 0.238281 0.707032 c 1.4375 3.769531 0.988281 8.03125 -0.90625 11.308594 c -0.507813 0.796874 -1.121094 1.519531 -1.652344 2.285156 c -0.382812 0.308594 -1.351562 1.300781 -1.980469 1.671875 c -0.292968 0.386719 -0.582031 0.773437 -0.863281 1.171875 c -0.417969 0.335937 -1.574219 1.546875 -2.171875 1.792968 c -0.34375 0.183594 -0.679687 0.378907 -1.015625 0.589844 c -0.332031 0.210938 -0.800781 0.292969 -1.191406 0.453125 c -0.800781 0.363281 -1.660156 0.414063 -2.496094 0.542969 c -0.738281 0.089844 -1.460937 0.074219 -2.175781 -0.015625 c 1.589844 0.617187 3.324219 0.96875 5.171875 0.917969 c 1.136719 -0.0625 2.3125 -0.082032 3.453125 -0.464844 c 0.578125 -0.179688 1.160156 -0.246094 1.75 -0.53125 c 0.585938 -0.285156 1.175781 -0.582031 1.773438 -0.878906 c 0.660156 -0.300782 1.039062 -0.628906 1.464843 -0.949219 l 0.265625 -0.203125 c 0.273438 -0.324219 0.558594 -0.644531 0.8125 -0.988281 c 2.929688 -4.246094 3.960938 -10.148438 2.242188 -15.6875 c -0.109375 -0.347657 -0.179688 -0.699219 -0.3125 -1.050781 l -0.515625 -1.0625 c -0.347657 -0.714844 -0.71875 -1.425782 -1.105469 -2.125 c -0.386719 -0.636719 -0.765625 -1.035157 -1.148438 -1.5625 l -0.585937 -0.757813 l -0.28125 -0.378906 c 0.15625 0.171875 -0.300781 -0.332031 -0.289063 -0.320313 l -0.101562 -0.097656 l -0.195312 -0.191406 c -2.0625 -2.09375 -4.609376 -3.839844 -7.464844 -5.015625 c -5.707032 -2.371094 -12.671875 -2.289063 -18.699219 0.632812 c -0.753906 0.359375 -1.464844 0.804688 -2.203125 1.210938 c -0.734375 0.492187 -1.515625 1.054687 -2.195312 1.578125 l -0.617188 0.53125 l -0.019531 0.019531 c -2.152344 2.542969 -3.902344 5.511719 -5.070313 8.746094 c -2.386718 6.449219 -2.246094 13.980469 0.546875 20.636719 c 0.699219 1.679687 1.546875 3.238281 2.578125 4.816406 c 0.558594 0.769531 1.175782 1.652344 1.722656 2.316406 l 1.699219 1.914062 c 2.523438 2.511719 5.421875 4.691407 8.609375 6.429688 c 6.417969 3.367188 14.003906 4.820312 21.355469 3.648438 c 3.65625 -0.554688 7.300781 -1.597657 10.640625 -3.320313 c 2.753906 -1.363281 5.585938 -3.375 7.875 -5.398437 c 4.355469 -4.890626 7.71875 -10.757813 9.480469 -17.113282 c 4.042969 -14.207031 -0.046875 -30.398437 -10.035157 -40.75 c -9.84375 -10.507812 -23.664062 -15.992187 -37.015624 -16.105468 c -6.671876 -0.066407 -13.242188 1.117187 -19.183594 3.488281 z m 0 0" fill="#814fc1"/>
    <path d="m 104.339844 13.492188 s 1.164062 1.148437 3.34375 3.308593 c 2.132812 2.183594 5.101562 5.703125 8.148437 10.65625 c 2.851563 5.050781 5.796875 11.640625 7.199219 19.761719 c 1.402344 8.050781 1.558594 17.667969 -1.417969 27.53125 c -0.761719 2.453125 -1.519531 4.972656 -2.671875 7.398438 c -0.964844 2.511718 -2.347656 4.875 -3.703125 7.316406 c -2.921875 4.726562 -6.480469 9.386718 -10.890625 13.359375 c -0.933594 0.964843 -2.222656 1.9375 -3.488281 2.902343 l -1.902344 1.453126 l -1.976562 1.230468 c -1.324219 0.828125 -2.652344 1.671875 -4.097657 2.3125 c -1.425781 0.679688 -2.824218 1.449219 -4.34375 1.949219 c -5.945312 2.371094 -12.511718 3.554687 -19.1875 3.492187 c -13.347656 -0.117187 -27.175781 -5.597656 -37.007812 -16.113281 c -9.984375 -10.34375 -14.074219 -26.539062 -10.03125 -40.738281 c 1.96875 -7.113281 5.9375 -13.625 11.070312 -18.824219 c 2.417969 -2.375 5.855469 -4.914062 9.121094 -6.53125 c 3.339844 -1.726562 6.980469 -2.765625 10.644532 -3.324219 c 7.347656 -1.171874 14.9375 0.285157 21.355468 3.652344 c 3.1875 1.738282 6.085938 3.917969 8.605469 6.429688 l 1.703125 1.914062 c 0.546875 0.664063 1.160156 1.542969 1.722656 2.316406 c 1.027344 1.578126 1.875 3.136719 2.574219 4.8125 c 2.792969 6.660157 2.9375 14.191407 0.546875 20.644532 c -1.167969 3.230468 -2.917969 6.195312 -5.074219 8.738281 l -1.699219 1.816406 l -0.105468 0.113281 l -0.246094 0.242188 l -0.203125 0.171875 l -0.402344 0.351563 l -0.816406 0.699218 c -0.679687 0.523438 -1.464844 1.089844 -2.195313 1.578125 c -0.734374 0.414063 -1.445312 0.855469 -2.203124 1.210938 c -6.023438 2.925781 -12.992188 3.003906 -18.699219 0.632812 c -2.855469 -1.171875 -5.402344 -2.921875 -7.460938 -5.015625 l -0.199219 -0.191406 l -0.097656 -0.09375 c 0.007813 0.007812 -0.449218 -0.496094 -0.289062 -0.328125 l -0.289063 -0.375 l -0.578125 -0.753906 c -0.386718 -0.527344 -0.765625 -0.929688 -1.148437 -1.566407 c -0.386719 -0.703124 -0.757813 -1.410156 -1.109375 -2.121093 l -0.515625 -1.066407 c -0.128907 -0.351562 -0.203125 -0.699218 -0.308594 -1.050781 c -1.71875 -5.542969 -0.6875 -11.445312 2.238281 -15.6875 c 0.761719 -1.027343 1.652344 -1.953125 2.460938 -2.886719 c 0.101562 -0.09375 -0.117188 0.089844 0.25 -0.230468 l 0.074218 -0.0625 l 0.164063 -0.121094 l 0.328125 -0.246094 l 0.644531 -0.484375 c 0.429688 -0.324219 0.8125 -0.652343 1.464844 -0.953125 c 0.59375 -0.296875 1.191406 -0.589844 1.777344 -0.875 c 0.582031 -0.285156 1.167969 -0.355468 1.742187 -0.535156 c 1.140625 -0.378906 2.316406 -0.402344 3.460938 -0.464844 c 4.632812 -0.117187 8.636718 2.191406 11.058594 5.234375 c 0.257812 0.355469 0.515624 0.667969 0.757812 1.050781 c 0.226562 0.453126 0.453125 0.90625 0.675781 1.351563 c 0.507813 0.890625 0.554688 1.785156 0.816407 2.636719 c 0.09375 0.871094 0.164062 1.742187 0.117187 2.566406 c -0.15625 0.820312 -0.125 1.648438 -0.441406 2.382812 c -0.886719 2.976563 -2.96875 5.265626 -5.019531 6.230469 c -2.230469 1.09375 -4.28125 0.992188 -5.824219 0.648438 c -3.070313 -0.953125 -3.976563 -2.566407 -4.035157 -2.449219 c 0.035157 -0.113281 1.183594 1.367188 4.144532 1.925781 c 1.449218 0.179688 3.398437 -0.03125 5.082031 -1.109375 c 0.429687 -0.195312 0.847656 -0.628906 1.292969 -1.035156 l 0.328125 -0.296875 c -0.003907 -0.015625 0.140625 -0.207031 0.207031 -0.296875 c 0.164062 -0.234375 0.335938 -0.464844 0.507812 -0.707031 c 0.6875 -0.949219 1.175782 -2.117188 1.425782 -3.382813 c 0.21875 -0.613281 0.097656 -1.300781 0.175781 -1.960937 c -0.027344 -0.671875 -0.15625 -1.355469 -0.285156 -2.03125 c -0.277344 -0.625 -0.386719 -1.402344 -0.796875 -1.917969 l -0.492188 -0.867188 c -0.238281 -0.304687 -0.558594 -0.628906 -0.832031 -0.945312 c -2.058594 -2.070312 -5.300781 -3.707031 -8.710937 -3.285156 c -0.839844 0.128906 -1.699219 0.183594 -2.496094 0.546875 c -0.394532 0.160156 -0.863282 0.238281 -1.191406 0.453125 c -0.339844 0.210937 -0.671876 0.40625 -1.019532 0.589844 c -0.597656 0.246093 -1.753906 1.453124 -2.171875 1.792968 c -0.53125 0.769532 -1.144531 1.492188 -1.652343 2.285156 c -1.898438 3.28125 -2.34375 7.539063 -0.90625 11.308594 c 0.082031 0.230469 0.140624 0.488282 0.242187 0.703125 l 0.34375 0.582031 c 0.226563 0.382813 0.433594 0.773438 0.632813 1.175782 c 0.269531 0.425781 0.78125 0.9375 1.164062 1.40625 l 0.625 0.710937 l 0.3125 0.363281 c 0.210938 0.230469 -0.195312 -0.214843 -0.125 -0.148437 l 0.074219 0.0625 l 0.160156 0.128906 c 1.601563 1.445313 3.511719 2.574219 5.597656 3.28125 c 4.144531 1.445313 9.019531 1.167969 13.039063 -1.023437 c 0.503906 -0.269532 0.96875 -0.601563 1.457031 -0.890625 l 1.230469 -0.949219 l 0.777344 -0.738281 l 0.386718 -0.367188 l 0.199219 -0.183593 c 0.0625 -0.0625 -0.207031 0.1875 -0.0625 0.042968 l 0.074219 -0.085937 l 1.191406 -1.378907 c 1.480469 -1.929687 2.636719 -4.125 3.371094 -6.472656 c 1.453125 -4.6875 1.277344 -10.003906 -0.828125 -14.605468 c -0.503907 -1.140626 -1.171875 -2.269532 -1.851563 -3.261719 c -0.375 -0.460938 -0.625 -0.867188 -1.0625 -1.394531 l -1.433594 -1.535157 c -1.953124 -1.820312 -4.140624 -3.378906 -6.527343 -4.605469 c -4.816407 -2.3125 -10.390625 -3.292968 -15.773438 -2.402343 c -2.671875 0.441406 -5.332031 1.199219 -7.746093 2.492187 c -2.5 1.335938 -4.359376 2.652344 -6.609376 4.816406 c -3.953124 4.105469 -6.957031 9.136719 -8.453124 14.644532 c -3.175782 11.003906 -0.273438 23.476562 7.613281 31.785156 c 3.84375 4.074219 8.679687 7.617188 13.832031 9.960938 c 5.183594 2.375 10.792969 3.671874 16.371094 3.878906 c 11.15625 0.4375 22.066406 -3.554688 29.910156 -10.144532 c 8.117188 -6.847656 13.648438 -15.59375 16.816406 -24.375 c 0.84375 -2.179687 1.308594 -4.4375 1.9375 -6.59375 c 0.332032 -2.214843 0.890625 -4.359374 1.046875 -6.503906 c 0.160157 -2.136718 0.464844 -4.226562 0.355469 -6.273437 c -0.007812 -1.019531 -0.019531 -2.03125 -0.023438 -3.023438 c -0.007812 -0.996093 -0.179687 -1.960937 -0.261718 -2.925781 c -0.769532 -7.695312 -2.917969 -14.226562 -5.222656 -19.367188 c -2.539063 -5.03125 -4.914063 -8.789062 -6.824219 -11.207031 c -1.925781 -2.378906 -2.953125 -3.652343 -2.953125 -3.652343 z m 0 0" fill="#22d0ff"/>
    <path d="m 108.136719 98.988281 c 2.714843 -3.007812 5.074219 -6.242187 7.101562 -9.523437 c 1.355469 -2.445313 2.738281 -4.804688 3.703125 -7.316406 c 1.152344 -2.425782 1.910156 -4.949219 2.671875 -7.398438 c 2.296875 -7.609375 2.714844 -15.0625 2.152344 -21.765625 c -0.078125 0.894531 -0.167969 1.792969 -0.238281 2.707031 c -0.15625 2.140625 -0.714844 4.289063 -1.046875 6.503906 c -0.628907 2.15625 -1.097657 4.414063 -1.9375 6.59375 c -2.976563 8.246094 -8.066407 16.441407 -15.394531 23.085938 c -1.734376 1.945312 -3.621094 3.808594 -5.679688 5.546875 c -7.847656 6.589844 -18.757812 10.585937 -29.914062 10.144531 c -5.578126 -0.207031 -11.1875 -1.507812 -16.367188 -3.878906 c -5.152344 -2.34375 -9.988281 -5.890625 -13.832031 -9.964844 c -7.890625 -8.308594 -10.792969 -20.777344 -7.617188 -31.785156 c 1.5 -5.507812 4.496094 -10.539062 8.453125 -14.640625 c 0.78125 -0.75 1.511719 -1.375 2.238282 -1.957031 c 0.644531 -0.792969 1.3125 -1.570313 2.019531 -2.304688 c 2.25 -2.164062 4.109375 -3.476562 6.613281 -4.820312 c 2.410156 -1.289063 5.070312 -2.046875 7.75 -2.488282 c 5.382812 -0.890624 10.953125 0.09375 15.773438 2.398438 c 2.382812 1.226562 4.566406 2.789062 6.523437 4.609375 l 1.429687 1.53125 c 0.441407 0.527344 0.6875 0.933594 1.0625 1.398437 c 0.679688 0.988282 1.351563 2.121094 1.855469 3.261719 c 2.101563 4.601563 2.28125 9.914063 0.824219 14.605469 c -0.730469 2.347656 -1.886719 4.539062 -3.371094 6.464844 l -1.191406 1.386718 l -0.070312 0.085938 c -0.148438 0.144531 0.121093 -0.105469 0.0625 -0.046875 l -0.203126 0.1875 l -0.382812 0.367187 l -0.78125 0.734376 l -1.226562 0.945312 c -0.027344 0.015625 -0.050782 0.035156 -0.078126 0.046875 c -0.132812 0.183594 -0.25 0.378906 -0.386718 0.558594 l -1.191406 1.378906 l -0.070313 0.089844 c -0.148437 0.140625 0.121094 -0.109375 0.058594 -0.042969 l -0.199219 0.183594 l -0.386719 0.363281 l -0.777343 0.738281 l -1.226563 0.949219 c -0.492187 0.289063 -0.960937 0.621094 -1.460937 0.890625 c -4.019532 2.191406 -8.894532 2.46875 -13.039063 1.023438 c -2.082031 -0.707032 -3.992187 -1.835938 -5.597656 -3.28125 l -0.160157 -0.125 l -0.074218 -0.066407 c -0.070313 -0.066406 0.339844 0.378907 0.125 0.148438 l -0.3125 -0.359375 l -0.4375 -0.503906 l 0.035156 0.046874 l 0.289062 0.378907 c -0.15625 -0.171875 0.296876 0.332031 0.289063 0.324219 l 0.097656 0.097656 l 0.199219 0.191406 c 2.0625 2.09375 4.605469 3.835938 7.460938 5.011719 c 5.707031 2.375 12.675781 2.292969 18.703124 -0.628907 c 0.75 -0.363281 1.46875 -0.808593 2.199219 -1.214843 c 0.644531 -0.429688 1.3125 -0.914063 1.925781 -1.378907 c 1.910157 -2.390624 3.488282 -5.117187 4.554688 -8.070312 c 2.390625 -6.453125 2.246094 -13.984375 -0.546875 -20.640625 c -0.699219 -1.679687 -1.542969 -3.238281 -2.574219 -4.816406 c -0.558594 -0.773438 -1.175781 -1.652344 -1.722656 -2.316407 l -1.703125 -1.914062 c -2.519531 -2.507812 -5.417969 -4.691406 -8.605469 -6.429688 c -6.417968 -3.363281 -14.007812 -4.820312 -21.355468 -3.652343 c -3.660157 0.5625 -7.304688 1.597656 -10.640626 3.324219 c -2.417968 1.199218 -4.929687 2.902343 -7.058593 4.671874 c -4.0625 4.75 -7.199219 10.363282 -8.875 16.421876 c -4.042969 14.207031 0.046875 30.402343 10.03125 40.746093 c 9.832031 10.507813 23.660156 15.996094 37.011719 16.109375 c 6.671874 0.0625 13.238281 -1.121094 19.179687 -3.488281 c 1.523437 -0.507813 2.925781 -1.273437 4.347656 -1.953125 c 1.441407 -0.640625 2.769531 -1.484375 4.09375 -2.308594 l 1.976563 -1.234375 l 1.902344 -1.449219 c 1.082031 -0.832031 2.136718 -1.664062 3.019531 -2.488281 z m 0 0" fill="#14a2f2"/>
    <path d="m 73.667969 65.875 l -0.160157 0.152344 c -0.449218 0.402344 -0.867187 0.835937 -1.292968 1.03125 c -0.382813 0.242187 -0.78125 0.433594 -1.179688 0.59375 c -0.1875 0.398437 -0.394531 0.78125 -0.636718 1.132812 c 0.765624 -0.117187 1.554687 -0.320312 2.386718 -0.71875 c 0.328125 -0.625 0.609375 -1.292968 0.820313 -1.996094 c 0.027343 -0.0625 0.042969 -0.128906 0.0625 -0.195312 z m 0 0" fill="#14a2f2"/>
    <path d="m 52.242188 60.261719 c 0.507812 -0.792969 1.121093 -1.515625 1.652343 -2.285157 c 0.417969 -0.339843 1.578125 -1.546874 2.171875 -1.792968 c 0.179688 -0.09375 0.347656 -0.199219 0.523438 -0.300782 c 0.484375 -0.746093 1.058594 -1.4375 1.5625 -2.167968 c 0.421875 -0.339844 1.578125 -1.542969 2.175781 -1.792969 c 0.34375 -0.1875 0.679687 -0.378906 1.015625 -0.589844 c 0.289062 -0.1875 0.6875 -0.277343 1.046875 -0.402343 c -0.578125 -0.066407 -1.171875 -0.09375 -1.769531 -0.078126 c -1.140625 0.0625 -2.320313 0.082032 -3.460938 0.464844 c -0.574218 0.175782 -1.15625 0.246094 -1.742187 0.53125 c -0.585938 0.289063 -1.183594 0.582032 -1.777344 0.875 c -0.453125 0.214844 -0.773437 0.4375 -1.070313 0.660156 c -0.015624 0.023438 -0.039062 0.042969 -0.050781 0.066407 c -2.929687 4.246093 -3.960937 10.148437 -2.242187 15.6875 c 0.105468 0.351562 0.179687 0.699219 0.3125 1.050781 l 0.511718 1.066406 c 0.113282 0.226563 0.242188 0.453125 0.355469 0.683594 c -0.035156 -0.125 -0.078125 -0.246094 -0.121093 -0.367188 c -1.4375 -3.769531 -0.992188 -8.027343 0.90625 -11.308593 z m 0 0" fill="#14a2f2"/>
    <g fill="#f4ebc1">
        <path d="m 16.671875 72.203125 c 0.109375 -0.113281 1.203125 0.792969 2.4375 2.023437 c 1.234375 1.226563 2.144531 2.316407 2.03125 2.425782 c -0.113281 0.113281 -1.203125 -0.792969 -2.4375 -2.019532 c -1.234375 -1.230468 -2.144531 -2.316406 -2.03125 -2.429687 z m 0 0"/>
        <path d="m 21.15625 72.203125 c 0.109375 0.113281 -0.800781 1.199219 -2.035156 2.429687 c -1.234375 1.230469 -2.324219 2.132813 -2.433594 2.023438 c -0.113281 -0.113281 0.796875 -1.199219 2.03125 -2.429688 c 1.234375 -1.230468 2.324219 -2.132812 2.4375 -2.023437 z m 0 0"/>
        <path d="m 112.726562 48.84375 c 0 0.765625 -0.058593 1.382812 -0.128906 1.382812 c -0.066406 0 -0.125 -0.617187 -0.125 -1.382812 c 0 -0.761719 0.058594 -1.382812 0.125 -1.382812 c 0.070313 0 0.128906 0.621093 0.128906 1.382812 z m 0 0"/>
        <path d="m 113.984375 48.847656 c 0 0.066406 -0.621094 0.125 -1.386719 0.125 c -0.761718 0 -1.382812 -0.058594 -1.382812 -0.125 c 0 -0.070312 0.621094 -0.128906 1.382812 -0.128906 c 0.765625 0 1.386719 0.058594 1.386719 0.128906 z m 0 0"/>
        <path d="m 36.9375 32.4375 c 0 0.761719 -0.054688 1.382812 -0.125 1.382812 s -0.125 -0.621093 -0.125 -1.382812 s 0.054688 -1.382812 0.125 -1.382812 s 0.125 0.621093 0.125 1.382812 z m 0 0"/>
        <path d="m 38.195312 32.441406 c 0 0.066406 -0.617187 0.125 -1.382812 0.125 c -0.761719 0 -1.382812 -0.058594 -1.382812 -0.125 c 0 -0.070312 0.621093 -0.128906 1.382812 -0.128906 c 0.765625 0 1.382812 0.058594 1.382812 0.128906 z m 0 0"/>
        <path d="m 84.382812 37.367188 c 0.144532 -0.148438 1.589844 1.046874 3.222657 2.664062 c 1.628906 1.617188 2.835937 3.050781 2.6875 3.199219 c -0.144531 0.148437 -1.585938 -1.046875 -3.21875 -2.664063 c -1.632813 -1.617187 -2.839844 -3.050781 -2.691407 -3.199218 z m 0 0"/>
        <path d="m 90.292969 37.351562 c 0.148437 0.148438 -1.054688 1.582032 -2.6875 3.203126 c -1.628907 1.621093 -3.070313 2.8125 -3.21875 2.664062 c -0.144531 -0.148438 1.058593 -1.578125 2.6875 -3.199219 c 1.632812 -1.621093 3.074219 -2.8125 3.21875 -2.667969 z m 0 0"/>
        <path d="m 77.820312 100.25 c 0 2.300781 -0.167968 4.164062 -0.378906 4.164062 c -0.207031 0 -0.378906 -1.863281 -0.378906 -4.164062 s 0.171875 -4.164062 0.378906 -4.164062 c 0.210938 0 0.378906 1.863281 0.378906 4.164062 z m 0 0"/>
        <path d="m 81.605469 100.25 c 0 0.207031 -1.863281 0.375 -4.160157 0.375 c -2.300781 0 -4.164062 -0.167969 -4.164062 -0.375 s 1.863281 -0.378906 4.164062 -0.378906 c 2.296876 0 4.160157 0.171875 4.160157 0.378906 z m 0 0"/>
        <path d="m 18.277344 43.375 c 0 0.394531 -0.316406 0.714844 -0.710938 0.714844 c -0.394531 0 -0.714844 -0.320313 -0.714844 -0.714844 s 0.320313 -0.714844 0.714844 -0.714844 c 0.394532 0 0.710938 0.320313 0.710938 0.714844 z m 0 0"/>
        <path d="m 97.9375 21.191406 c 0 0.390625 -0.320312 0.710938 -0.714844 0.710938 c -0.390625 0 -0.710937 -0.320313 -0.710937 -0.710938 c 0 -0.394531 0.320312 -0.714844 0.710937 -0.714844 c 0.394532 0 0.714844 0.320313 0.714844 0.714844 z m 0 0"/>
        <path d="m 89.992188 60.230469 c 0 0.710937 -0.578126 1.289062 -1.289063 1.289062 s -1.289063 -0.578125 -1.289063 -1.289062 c 0 -0.710938 0.578126 -1.289063 1.289063 -1.289063 s 1.289063 0.578125 1.289063 1.289063 z m 0 0"/>
        <path d="m 54.667969 23.03125 c 0 0.707031 -0.578125 1.285156 -1.289063 1.285156 c -0.707031 0 -1.285156 -0.578125 -1.285156 -1.285156 c 0 -0.710938 0.578125 -1.289062 1.285156 -1.289062 c 0.710938 0 1.289063 0.578124 1.289063 1.289062 z m 0 0"/>
        <path d="m 107.132812 85.65625 c 0 0.554688 -0.449218 1.003906 -1.003906 1.003906 c -0.550781 0 -1 -0.449218 -1 -1.003906 c 0 -0.550781 0.449219 -1 1 -1 c 0.554688 0 1.003906 0.449219 1.003906 1 z m 0 0"/>
        <path d="m 37.816406 107.375 c 0 0.554688 -0.445312 1 -0.996094 1 c -0.558593 0 -1.003906 -0.445312 -1.003906 -1 c 0 -0.550781 0.445313 -1 1.003906 -1 c 0.550782 0 0.996094 0.449219 0.996094 1 z m 0 0"/>
        <path d="m 108.027344 68.378906 c 0 0.835938 -0.683594 1.519532 -1.523438 1.519532 c -0.847656 0 -1.523437 -0.679688 -1.523437 -1.519532 c 0 -0.84375 0.675781 -1.523437 1.523437 -1.523437 c 0.839844 0 1.523438 0.679687 1.523438 1.523437 z m 0 0"/>
    </g>
    <path d="m 67.515625 64 c 0 1.945312 -1.574219 3.515625 -3.515625 3.515625 s -3.515625 -1.570313 -3.515625 -3.515625 c 0 -1.941406 1.574219 -3.511719 3.515625 -3.511719 s 3.515625 1.570313 3.515625 3.511719 z m 0 0" fill="#141160"/>
    <path d="m 64 60.484375 c 1.941406 0 3.515625 1.574219 3.515625 3.515625 s -1.574219 3.515625 -3.515625 3.515625" fill="#00000a"/>
</svg>
